<svg width="20" height="19" viewBox="0 0 20 19" fill="none" xmlns="http://www.w3.org/2000/svg">
<g clip-path="url(#clip0_8_4037)">
<g clip-path="url(#clip1_8_4037)">
<path d="M2.80981 6.32446H2.76133C2.13985 6.32446 1.63312 6.83365 1.63312 7.45458V12.3749C1.63312 12.9983 2.13985 13.5059 2.76133 13.5059H2.81064C3.43212 13.5059 3.93886 12.9967 3.93886 12.3749V7.45454C3.93803 6.83365 3.43051 6.32446 2.80981 6.32446Z" fill="white"/>
<path d="M4.47876 14.2737C4.47876 14.8453 4.94506 15.3108 5.51563 15.3108H6.62365V17.9685C6.62365 18.5926 7.13199 19.1002 7.75187 19.1002H7.80035C8.42266 19.1002 8.93018 18.5918 8.93018 17.9685V15.3108H10.4787V17.9685C10.4787 18.5926 10.9886 19.1002 11.6085 19.1002H11.6562C12.2784 19.1002 12.7851 18.5918 12.7851 17.9685V15.3108H13.8939C14.4637 15.3108 14.93 14.8453 14.93 14.2737V6.50464H4.47876V14.2737Z" fill="white"/>
<path d="M12.3075 1.79346L13.1876 0.432651C13.2442 0.346821 13.2191 0.229467 13.1327 0.173586C13.047 0.116918 12.9298 0.14041 12.8741 0.228642L11.9617 1.63644C11.2771 1.35554 10.5126 1.19768 9.70518 1.19768C8.897 1.19768 8.13408 1.35554 7.44796 1.63644L6.53717 0.228642C6.48142 0.14041 6.36339 0.116918 6.27692 0.173586C6.19045 0.22943 6.16539 0.346821 6.22196 0.432651L7.10287 1.79346C5.51479 2.57305 4.44397 4.04236 4.44397 5.72779C4.44397 5.83141 4.45045 5.93342 4.45934 6.03459H14.9519C14.9607 5.93342 14.9664 5.83141 14.9664 5.72779C14.9664 4.04236 13.8948 2.57305 12.3075 1.79346ZM7.27259 4.23016C6.99377 4.23016 6.76747 4.00509 6.76747 3.72501C6.76747 3.44493 6.99377 3.22066 7.27259 3.22066C7.55302 3.22066 7.77771 3.4449 7.77771 3.72501C7.77771 4.00513 7.55141 4.23016 7.27259 4.23016ZM12.137 4.23016C11.8581 4.23016 11.6319 4.00509 11.6319 3.72501C11.6319 3.44493 11.8581 3.22066 12.137 3.22066C12.4166 3.22066 12.6413 3.4449 12.6413 3.72501C12.6413 4.00509 12.4166 4.23016 12.137 4.23016Z" fill="white"/>
<path d="M16.6474 6.32446H16.6005C15.979 6.32446 15.4706 6.83365 15.4706 7.45458V12.3749C15.4706 12.9983 15.9798 13.5059 16.6005 13.5059H16.6482C17.2705 13.5059 17.7765 12.9967 17.7765 12.3749V7.45454C17.7765 6.83365 17.2689 6.32446 16.6474 6.32446Z" fill="white"/>
</g>
</g>
<defs>
<clipPath id="clip0_8_4037">
<rect width="18.7568" height="18.7568" fill="white" transform="translate(0.310791 0.243164)"/>
</clipPath>
<clipPath id="clip1_8_4037">
<rect width="19.1946" height="19.1946" fill="white" transform="translate(0.0919189 0.0241699)"/>
</clipPath>
</defs>
</svg>
