<svg width="23" height="23" viewBox="0 0 23 23" fill="none" xmlns="http://www.w3.org/2000/svg">
<g clip-path="url(#clip0_5_946)">
<path d="M4.98014 0.875141L5.98916 0.25L6.41606 0.515211L8.43411 1.74655L10.1611 3.92507L11.1507 5.98993L11.5 12.1087C10.9437 13.3906 9.78077 16.0566 9.57897 16.4658C9.37716 16.875 7.54151 18.758 6.64891 19.6483L5.81453 19.3073L4.65026 18.1328L2.94268 15.5565C2.27647 14.3946 0.909106 12.0178 0.769394 11.8056C0.629683 11.5935 1.02165 7.94113 1.2351 6.14148L1.46795 4.70176L4.98014 0.875141Z" fill="url(#paint0_linear_5_946)"/>
<path d="M4.98818 0.946063L5.9901 0.325806L6.41399 0.588945L8.41783 1.81066L10.1327 3.97217L11.1153 6.0209L11.4621 12.0919C10.9098 13.3637 9.75501 16.0089 9.55463 16.4149C9.35424 16.8209 7.53152 18.6892 6.6452 19.5726L5.81669 19.2343L4.66063 18.0689L2.96507 15.5127C2.30355 14.3599 0.945818 12.0017 0.80709 11.7912C0.668363 11.5807 1.05757 7.95685 1.26952 6.17126L1.50073 4.74279L4.98818 0.946063Z" fill="url(#paint1_linear_5_946)" style="mix-blend-mode:darken"/>
<path opacity="0.32" d="M5.19773 1.17271L5.96262 0.553101L6.88433 0.903315L8.69903 2.43887L9.96426 4.42893L10.6845 5.48304L11.1969 11.6799C10.6848 12.8156 9.61411 15.1778 9.42832 15.5403C9.24253 15.9029 7.55256 17.5713 6.73079 18.3602L5.96262 18.058L4.89076 17.0174L3.31869 14.7347C2.70534 13.7052 1.44649 11.5993 1.31787 11.4113C1.18924 11.2233 1.12136 8.55926 1.31787 6.96472L1.56834 6.25845L5.19773 1.17271Z" fill="url(#paint2_linear_5_946)"/>
<path opacity="0.8" d="M5.25304 7.42135L6.02047 7.03186L6.34515 7.1971L7.88 7.96428L9.19349 9.3216L9.94616 10.6081L10.2118 14.4204C9.78874 15.2191 8.90423 16.8801 8.75074 17.1351C8.59726 17.39 7.20113 18.5632 6.52225 19.1179L5.88764 18.9055L5.00215 18.1737L3.70342 16.5685C3.19672 15.8446 2.15676 14.3638 2.0505 14.2316C1.94424 14.0994 2.24236 11.8238 2.4047 10.7025L2.5818 9.80552L5.25304 7.42135Z" fill="url(#paint3_linear_5_946)"/>
<path opacity="0.4" d="M3.67624 5.89519C4.29507 5.39634 5.55925 4.3797 5.66533 4.30392L5.89265 4.03871L6.17681 3.92505L6.68829 4.30392L8.96153 6.21723L8.79104 9.34294L8.96153 11.7867L7.59759 14.8934L6.02526 15.9922L5.66533 15.2155L4.3961 14.0789L3.24054 12.2224L3.48681 11.5215V7.99794L3.67624 5.89519Z" fill="url(#paint4_linear_5_946)"/>
<path opacity="0.48" d="M5.7411 1.36767C5.72595 1.35251 5.25488 1.04563 5.02124 0.894078C5.05155 0.863768 5.67795 0.489946 5.98737 0.306824L5.91159 1.4245C5.86108 1.41187 5.75626 1.38282 5.7411 1.36767Z" fill="url(#paint5_linear_5_946)"/>
<path opacity="0.48" d="M5.96844 1.1025L6.00633 0.325806C6.03664 0.325806 7.61023 1.27299 8.39324 1.74658L8.41218 1.80341C8.31746 2.03074 8.12424 2.48917 8.10908 2.50433C8.09014 2.52327 7.69232 4.11454 7.63549 4.28503C7.59002 4.42143 7.19978 4.49341 7.01035 4.51236L6.74514 4.28503L6.17683 3.88722V3.54623L6.27154 2.95898L5.96844 1.59503V1.1025Z" fill="url(#paint6_linear_5_946)"/>
<path opacity="0.48" d="M8.41217 1.8792L8.469 1.84131L10.1171 3.92511L9.96555 4.34187L9.87084 4.64497C9.93398 4.86598 10.0527 5.31558 10.0224 5.34589C9.99208 5.3762 9.32778 5.9142 8.99943 6.17941L8.62055 5.89526L8.05224 5.38378L7.48393 4.8723L7.44604 4.79652L7.63548 4.37976L7.71126 4.20927L7.95752 3.2242L8.10907 2.63694L8.41217 1.8792Z" fill="url(#paint7_linear_5_946)"/>
<path opacity="0.48" d="M10.6096 5.61104L11.1022 5.98991L11.3295 9.68393L11.4621 12.0898H10.2686L9.01836 11.7109L8.96152 11.4646L8.92364 10.4985V10.2901L8.96152 9.94914L8.82892 9.34294L8.99941 6.27407L9.09413 6.19829L9.28357 5.98991L10.0603 5.34583L10.6096 5.61104Z" fill="url(#paint8_linear_5_946)"/>
<path opacity="0.48" d="M10.2497 12.1277H11.4432L9.87083 15.7649L9.5109 16.5226L9.16991 16.2953C8.67738 15.828 7.65442 14.9389 7.65442 14.8935C7.65442 14.848 7.91963 14.2368 8.03329 13.9652L8.88576 12.033C8.92365 11.9572 9.00321 11.8019 9.01836 11.7867C9.03352 11.7716 9.84557 12.0077 10.2497 12.1277Z" fill="url(#paint9_linear_5_946)"/>
<path opacity="0.48" d="M5.94952 17.2993L6.0253 16.0301L7.55974 14.9503L7.65445 14.9882L8.60164 15.8217L9.15101 16.3332L9.49199 16.5416L8.7153 17.4509L6.6315 19.6105L6.0253 18.3033L5.94952 17.2993Z" fill="url(#paint10_linear_5_946)"/>
<path opacity="0.48" d="M9.96558 4.55018L10.1361 3.98187L11.0833 5.91413L10.6665 5.59209L10.0603 5.28899L9.96558 4.55018Z" fill="url(#paint11_linear_5_946)"/>
<path opacity="0.48" d="M5.8548 18.8527V19.2505L6.55571 19.5726L6.17684 18.758L6.00635 18.3602L5.8548 18.8527Z" fill="url(#paint12_linear_5_946)"/>
<path opacity="0.48" d="M5.79793 18.777V19.2127L4.62342 18.0382L2.82377 15.2534L1.99025 13.8327L0.910461 11.8436L1.85765 12.1846L3.1837 12.3361L4.32032 14.1168L5.60849 15.2534L5.96842 16.0491C5.94317 16.4153 5.89265 17.1554 5.89265 17.1857C5.89265 17.216 5.94317 17.9434 5.96842 18.3034L5.79793 18.777Z" fill="url(#paint13_linear_5_946)"/>
<path opacity="0.48" d="M1.9524 12.1277L0.777893 11.7298L1.27043 6.27406L1.44092 5.19427L1.53564 4.73962L2.17973 4.89117L2.27444 5.19427L3.6005 5.97096L3.43001 7.94111V11.5215L3.14585 12.2224L1.9524 12.1277Z" fill="url(#paint14_linear_5_946)"/>
<path opacity="0.48" d="M2.23654 4.85333L1.55457 4.70178L2.06604 4.09558L4.98337 0.950928L5.74112 1.40558L5.93056 1.65184L6.19577 2.95896L6.11999 3.86825L5.85478 4.00086L5.6464 4.24713L3.67626 5.81945L3.58154 5.87628L2.33126 5.17537L2.23654 4.85333Z" fill="url(#paint15_linear_5_946)"/>
<path opacity="0.08" d="M9.07521 10.0628L8.96155 9.28612V8.43365L9.07521 8.8883L9.58669 9.41873L10.0982 9.53239C10.2308 9.64605 10.5111 9.88853 10.5718 9.94915C10.6324 10.0098 11.1274 10.5301 11.3674 10.7827V11.9951H10.2497L9.20782 11.6541L9.07521 10.7827V10.0628Z" fill="url(#paint16_linear_5_946)"/>
<path opacity="0.2" d="M3.92253 5.83839L6.12 4.00085L7.06718 4.66388L8.82894 6.19832L8.69634 7.25917C8.38061 7.58121 7.73021 8.24424 7.65443 8.32001C7.55972 8.41473 7.10507 8.62311 6.38521 9.03987C5.66535 9.45663 5.17281 9.49452 4.96443 9.49452C4.79773 9.49452 3.97305 10.3154 3.58154 10.7259V8.22529L3.92253 5.83839Z" fill="url(#paint17_linear_5_946)"/>
<g style="mix-blend-mode:soft-light">
<path d="M7.41991 9.19243C7.41991 8.56262 6.94994 8.05237 6.37037 8.05237H5.47835C5.09929 8.05237 4.79175 8.38644 4.79175 8.79819V9.6877C4.79175 9.12389 5.41665 8.83856 5.78753 9.2333L6.74826 10.2558C7.14111 10.0911 7.41991 9.6773 7.41991 9.19243Z" fill="url(#paint18_linear_5_946)"/>
<path d="M4.79175 10.3322V11.2367C4.79175 11.588 5.05396 11.8729 5.37739 11.8729H6.83286C7.35751 11.8729 7.61762 11.1811 7.24277 10.782L6.74803 10.2556C6.63071 10.3048 6.50335 10.332 6.37014 10.332H4.79175V10.3322Z" fill="url(#paint19_linear_5_946)"/>
<path d="M4.79175 9.68771V10.3322H6.37037C6.50358 10.3322 6.63095 10.3051 6.74826 10.2558L5.78753 9.23331C5.41665 8.83856 4.79175 9.12389 4.79175 9.68771Z" fill="#0044BC"/>
</g>
</g>
<defs>
<linearGradient id="paint0_linear_5_946" x1="6.11692" y1="0.248926" x2="6.11692" y2="19.6484" gradientUnits="userSpaceOnUse">
<stop stop-color="#0974F2"/>
<stop offset="1" stop-color="#37CFFF"/>
</linearGradient>
<linearGradient id="paint1_linear_5_946" x1="6.11695" y1="0.32474" x2="6.11695" y2="19.5726" gradientUnits="userSpaceOnUse">
<stop stop-color="white"/>
<stop offset="1" stop-color="#37CFFF"/>
</linearGradient>
<linearGradient id="paint2_linear_5_946" x1="6.24102" y1="1.17176" x2="6.24102" y2="18.3602" gradientUnits="userSpaceOnUse">
<stop stop-color="#002BC1"/>
<stop offset="0.535884" stop-color="#1873DD"/>
<stop offset="1" stop-color="#37CFFF"/>
</linearGradient>
<linearGradient id="paint3_linear_5_946" x1="6.11763" y1="7.03119" x2="6.11763" y2="19.118" gradientUnits="userSpaceOnUse">
<stop stop-color="#002BC1" stop-opacity="0"/>
<stop offset="0.535884" stop-color="#1873DD" stop-opacity="0"/>
<stop offset="1" stop-color="#0BB5FE"/>
</linearGradient>
<linearGradient id="paint4_linear_5_946" x1="6.0994" y1="3.92438" x2="6.0994" y2="15.9922" gradientUnits="userSpaceOnUse">
<stop stop-color="#0BB5FE"/>
<stop offset="1" stop-color="#002BC1"/>
</linearGradient>
<linearGradient id="paint5_linear_5_946" x1="5.24856" y1="0.363655" x2="5.91159" y2="1.61394" gradientUnits="userSpaceOnUse">
<stop stop-color="#002BC1"/>
<stop offset="1" stop-color="#37CFFF"/>
</linearGradient>
<linearGradient id="paint6_linear_5_946" x1="7.19031" y1="0.325806" x2="7.19031" y2="4.51236" gradientUnits="userSpaceOnUse">
<stop stop-color="#002BC1"/>
<stop offset="1" stop-color="#0BB5FE"/>
</linearGradient>
<linearGradient id="paint7_linear_5_946" x1="8.78157" y1="1.84131" x2="8.78157" y2="6.17941" gradientUnits="userSpaceOnUse">
<stop stop-color="#002BC1"/>
<stop offset="1" stop-color="#0BB5FE"/>
</linearGradient>
<linearGradient id="paint8_linear_5_946" x1="9.54878" y1="7.22125" x2="11.14" y2="12.4308" gradientUnits="userSpaceOnUse">
<stop stop-color="#002BC1"/>
<stop offset="1" stop-color="#0BB5FE"/>
</linearGradient>
<linearGradient id="paint9_linear_5_946" x1="9.01836" y1="13.7568" x2="10.1929" y2="16.7121" gradientUnits="userSpaceOnUse">
<stop stop-color="#002BC1"/>
<stop offset="1" stop-color="#0BB5FE"/>
</linearGradient>
<linearGradient id="paint10_linear_5_946" x1="7.72076" y1="14.9503" x2="7.72076" y2="19.6105" gradientUnits="userSpaceOnUse">
<stop offset="0.354167" stop-color="#002BC1"/>
<stop offset="1" stop-color="#0BB5FE"/>
</linearGradient>
<linearGradient id="paint11_linear_5_946" x1="10.5244" y1="3.98187" x2="10.5244" y2="5.91413" gradientUnits="userSpaceOnUse">
<stop stop-color="#002BC1"/>
<stop offset="1" stop-color="#0BB5FE"/>
</linearGradient>
<linearGradient id="paint12_linear_5_946" x1="6.20526" y1="18.3602" x2="6.20526" y2="19.5726" gradientUnits="userSpaceOnUse">
<stop offset="0.432292" stop-color="#002BC1"/>
<stop offset="1" stop-color="#0BB5FE"/>
</linearGradient>
<linearGradient id="paint13_linear_5_946" x1="3.42997" y1="14.2305" x2="3.14582" y2="18.0571" gradientUnits="userSpaceOnUse">
<stop stop-color="#002BC1"/>
<stop offset="1" stop-color="#0BB5FE"/>
</linearGradient>
<linearGradient id="paint14_linear_5_946" x1="3.61944" y1="6.10357" x2="0.891555" y2="11.9951" gradientUnits="userSpaceOnUse">
<stop stop-color="#002BC1"/>
<stop offset="1" stop-color="#0BB5FE"/>
</linearGradient>
<linearGradient id="paint15_linear_5_946" x1="3.87517" y1="0.950928" x2="3.87517" y2="5.87628" gradientUnits="userSpaceOnUse">
<stop stop-color="#002BC1"/>
<stop offset="1" stop-color="#0BB5FE"/>
</linearGradient>
<linearGradient id="paint16_linear_5_946" x1="10.1645" y1="8.43365" x2="10.1645" y2="11.9951" gradientUnits="userSpaceOnUse">
<stop stop-color="white"/>
<stop offset="1" stop-color="white" stop-opacity="0"/>
</linearGradient>
<linearGradient id="paint17_linear_5_946" x1="6.20524" y1="4.00085" x2="6.49887" y2="9.49452" gradientUnits="userSpaceOnUse">
<stop stop-color="white"/>
<stop offset="1" stop-color="white" stop-opacity="0"/>
</linearGradient>
<linearGradient id="paint18_linear_5_946" x1="6.90484" y1="8.04069" x2="5.52071" y2="9.54774" gradientUnits="userSpaceOnUse">
<stop stop-color="#00D4EF"/>
<stop offset="1" stop-color="#1356ED"/>
</linearGradient>
<linearGradient id="paint19_linear_5_946" x1="4.93454" y1="11.7477" x2="6.97373" y2="10.5898" gradientUnits="userSpaceOnUse">
<stop stop-color="#FFB48A"/>
<stop offset="1" stop-color="#EFB511"/>
</linearGradient>
<clipPath id="clip0_5_946">
<rect width="22" height="22" fill="white" transform="translate(0.73999 0.25)"/>
</clipPath>
</defs>
</svg>
