<svg width="21" height="21" viewBox="0 0 21 21" fill="none" xmlns="http://www.w3.org/2000/svg">
<path d="M15.7167 12.1354C15.3667 12.4771 15.1667 12.9687 15.2167 13.4937C15.2917 14.3937 16.1167 15.0521 17.0167 15.0521H18.6V16.0437C18.6 17.7687 17.1917 19.1771 15.4667 19.1771H5.9C4.175 19.1771 2.76666 17.7687 2.76666 16.0437V10.4354C2.76666 8.7104 4.175 7.30206 5.9 7.30206H15.4667C17.1917 7.30206 18.6 8.7104 18.6 10.4354V11.6354H16.9167C16.45 11.6354 16.025 11.8187 15.7167 12.1354Z" stroke="#0A99EF" stroke-width="1.5" stroke-linecap="round" stroke-linejoin="round"/>
<path d="M2.76666 11.1854V7.37711C2.76666 6.38544 3.375 5.50207 4.3 5.15207L10.9167 2.65207C11.95 2.26041 13.0583 3.0271 13.0583 4.13543V7.30209" stroke="#0A99EF" stroke-width="1.5" stroke-linecap="round" stroke-linejoin="round"/>
<path d="M19.4823 12.4856V14.2023C19.4823 14.6606 19.1157 15.0356 18.649 15.0522H17.0157C16.1157 15.0522 15.2907 14.3939 15.2157 13.4939C15.1657 12.9689 15.3657 12.4772 15.7157 12.1356C16.024 11.8189 16.449 11.6356 16.9157 11.6356H18.649C19.1157 11.6523 19.4823 12.0272 19.4823 12.4856Z" stroke="#0A99EF" stroke-width="1.5" stroke-linecap="round" stroke-linejoin="round"/>
<path d="M6.51666 10.8438H12.35" stroke="#0A99EF" stroke-width="1.5" stroke-linecap="round" stroke-linejoin="round"/>
</svg>
