<svg width="18" height="18" viewBox="0 0 18 18" fill="none" xmlns="http://www.w3.org/2000/svg">
<path d="M8.5127 13.875H5.73771C3.39771 13.875 1.50021 11.6925 1.50021 9C1.50021 6.3075 3.39771 4.125 5.73771 4.125H8.51271C6.17271 4.125 4.50021 6.3075 4.50021 9C4.50021 11.6925 6.1727 13.875 8.5127 13.875Z" stroke="#354D6F" stroke-width="1.5" stroke-linecap="round" stroke-linejoin="round"/>
<path d="M12.2625 13.875C11.58 13.875 10.95 13.6875 10.41 13.3575C9.09 12.555 8.25 10.905 8.25 9C8.25 7.095 9.09 5.445 10.41 4.6425C10.95 4.3125 11.58 4.125 12.2625 4.125C13.4325 4.125 14.49 4.6725 15.255 5.55C16.0275 6.435 16.5 7.65 16.5 9C16.5 10.35 16.0275 11.565 15.2625 12.45C14.49 13.3275 13.4325 13.875 12.2625 13.875Z" stroke="#354D6F" stroke-width="1.5" stroke-linecap="round" stroke-linejoin="round"/>
<path d="M12.2625 13.875H8.5125C6.1725 13.875 4.5 11.6925 4.5 9C4.5 6.3075 6.1725 4.125 8.5125 4.125H12.2625C14.6025 4.125 16.5 6.3075 16.5 9C16.5 10.35 16.0275 11.565 15.2625 12.45C14.49 13.3275 13.4325 13.875 12.2625 13.875Z" stroke="#354D6F" stroke-width="1.5" stroke-linecap="round" stroke-linejoin="round"/>
</svg>
