<svg width="40" height="24" viewBox="0 0 40 24" fill="none" xmlns="http://www.w3.org/2000/svg">
<path d="M38.8513 4.41908C38.4691 4.16474 37.9587 4.15957 37.5721 4.40349L31.0791 8.42393C30.8294 8.58068 30.6549 8.8246 30.5974 9.10176C30.5378 9.37786 30.5996 9.66543 30.7676 9.90007C31.1409 10.4233 31.3376 11.0336 31.3376 11.6658C31.3376 13.4243 29.8153 14.8548 27.9441 14.8548C26.0729 14.8548 24.5506 13.4243 24.5506 11.6658C24.5506 10.6319 25.0941 9.65714 26.0021 9.05712C26.5125 8.72079 26.6362 8.05847 26.2783 7.57786L20.9517 0.426631C20.5319 -0.14221 19.5201 -0.14221 19.1003 0.426631L13.7737 7.57793C13.4158 8.05854 13.5396 8.72086 14.0499 9.05719C14.9579 9.65721 15.5014 10.632 15.5014 11.6659C15.5014 13.4244 13.9791 14.8549 12.1079 14.8549C10.2367 14.8549 8.71444 13.4244 8.71444 11.6659C8.71444 11.0337 8.91103 10.4233 9.28447 9.90014C9.45241 9.6655 9.51424 9.378 9.45459 9.10183C9.39713 8.82468 9.22263 8.58068 8.97295 8.424L2.47995 4.40356C2.09114 4.15964 1.58295 4.16481 1.20077 4.41915C0.818585 4.67242 0.641823 5.11987 0.754486 5.54549L5.35415 22.5533C5.49554 23.089 6.04785 23.4471 6.63771 23.3443C15.5235 21.9533 24.5285 21.9533 33.4143 23.3443C33.4762 23.3547 33.5402 23.3589 33.5999 23.3589C34.1103 23.3589 34.5698 23.0329 34.6979 22.5533L39.2976 5.54549C39.4102 5.1198 39.2335 4.67235 38.8513 4.41908Z" fill="url(#paint0_linear_10_9418)"/>
<defs>
<linearGradient id="paint0_linear_10_9418" x1="20.026" y1="23.3618" x2="20.026" y2="1.67097e-05" gradientUnits="userSpaceOnUse">
<stop stop-color="#334D6E"/>
<stop offset="1" stop-color="#334D6E"/>
</linearGradient>
</defs>
</svg>
