<svg width="49" height="34" viewBox="0 0 49 34" fill="none" xmlns="http://www.w3.org/2000/svg">
<path d="M47.2043 7.81714C46.7339 7.4525 46.1626 7.21798 45.5555 7.14034C44.9485 7.06271 44.3301 7.14509 43.7711 7.37808L33.3687 11.6733L27.3246 1.55572C27.0357 1.08336 26.6171 0.690535 26.1116 0.417254C25.606 0.143973 25.0314 0 24.4464 0C23.8614 0 23.2869 0.143973 22.7813 0.417254C22.2757 0.690535 21.8572 1.08336 21.5683 1.55572L15.5242 11.6733L5.12179 7.37808C4.56159 7.14543 3.94248 7.06294 3.33443 7.13993C2.72639 7.21693 2.15367 7.45033 1.68101 7.81376C1.20835 8.1772 0.854603 8.65616 0.659761 9.19651C0.464919 9.73686 0.43675 10.3171 0.57844 10.8715L5.80021 31.5456C5.90005 31.9459 6.08637 32.3232 6.34787 32.6546C6.60937 32.986 6.9406 33.2647 7.32151 33.4737C7.8372 33.7603 8.42681 33.9121 9.02783 33.9128C9.32 33.9122 9.61064 33.8737 9.89128 33.7982C19.4093 31.3547 29.463 31.3547 38.981 33.7982C39.8501 34.0104 40.7743 33.8937 41.5508 33.4737C41.934 33.2673 42.2671 32.9894 42.5289 32.6576C42.7907 32.3258 42.9757 31.9472 43.0721 31.5456L48.3144 10.8715C48.4545 10.3169 48.4248 9.73698 48.2286 9.19725C48.0325 8.65751 47.6777 8.17948 47.2043 7.81714Z" fill="#FFAA00"/>
</svg>
