<svg width="25" height="25" viewBox="0 0 25 25" fill="none" xmlns="http://www.w3.org/2000/svg">
<mask id="mask0_5_1418" style="mask-type:alpha" maskUnits="userSpaceOnUse" x="0" y="0" width="25" height="25">
<g clip-path="url(#clip0_5_1418)">
<path d="M19.0567 9.29718C18.7776 9.29718 18.51 9.40801 18.3127 9.60531C18.1154 9.8026 18.0046 10.0702 18.0046 10.3492V15.1169C18.0046 15.3959 18.1154 15.6635 18.3127 15.8608C18.51 16.0581 18.7776 16.1689 19.0567 16.1689C19.3357 16.1689 19.6033 16.0581 19.8006 15.8608C19.9979 15.6635 20.1087 15.3959 20.1087 15.1169V10.3492C20.1087 10.0702 19.9979 9.8026 19.8006 9.60531C19.6033 9.40801 19.3357 9.29718 19.0567 9.29718Z" fill="white"/>
<path d="M5.49221 9.29718C5.2132 9.29718 4.94561 9.40801 4.74832 9.60531C4.55103 9.8026 4.44019 10.0702 4.44019 10.3492V15.1169C4.44019 15.3959 4.55103 15.6635 4.74832 15.8608C4.94561 16.0581 5.2132 16.1689 5.49221 16.1689C5.77122 16.1689 6.03882 16.0581 6.23611 15.8608C6.4334 15.6635 6.54424 15.3959 6.54424 15.1169V10.3492C6.54424 10.0702 6.4334 9.8026 6.23611 9.60531C6.03882 9.40801 5.77122 9.29718 5.49221 9.29718Z" fill="white"/>
<path d="M7.3053 9.29718V16.4599C7.3053 16.6172 7.33627 16.773 7.39646 16.9182C7.45663 17.0635 7.54484 17.1956 7.65604 17.3067C7.76724 17.4179 7.89926 17.5061 8.04455 17.5663C8.18983 17.6264 8.34555 17.6574 8.50282 17.6574H9.26386V20.198C9.26386 20.477 9.37469 20.7446 9.57199 20.9419C9.76928 21.1392 10.0369 21.25 10.3159 21.25C10.5949 21.25 10.8625 21.1392 11.0598 20.9419C11.2571 20.7446 11.3679 20.477 11.3679 20.198V17.6574H13.181V20.198C13.181 20.477 13.2918 20.7446 13.4891 20.9419C13.6864 21.1392 13.954 21.25 14.233 21.25C14.512 21.25 14.7796 21.1392 14.9769 20.9419C15.1742 20.7446 15.285 20.477 15.285 20.198V17.6574H16.0461C16.3637 17.6574 16.6682 17.5313 16.8928 17.3067C17.1175 17.0822 17.2436 16.7775 17.2436 16.4599V9.29718H7.3053Z" fill="white"/>
<path d="M17.1093 7.8087C16.7799 6.70364 16.0494 5.76158 15.0612 5.16744L14.8933 5.06672L14.7142 4.97718L14.9157 4.63024L15.5089 3.51106C15.5201 3.47918 15.5207 3.4445 15.5106 3.41223C15.5006 3.37996 15.4803 3.35181 15.4529 3.33199H15.3746C15.346 3.33328 15.318 3.34098 15.2929 3.35454C15.2677 3.36811 15.2459 3.38718 15.2291 3.41034L14.6247 4.45117L14.4345 4.79812L14.2554 4.71977L14.0651 4.65262C12.9053 4.2501 11.6436 4.2501 10.4838 4.65262L10.3047 4.71977L10.1144 4.79812L9.92417 4.45117L9.31982 3.33199C9.30952 3.31363 9.29572 3.29746 9.27918 3.28443C9.26265 3.27139 9.24371 3.26173 9.22345 3.25602C9.20318 3.2503 9.18198 3.24864 9.16107 3.25111C9.14017 3.25358 9.11995 3.26015 9.10158 3.27044C9.0832 3.28073 9.06704 3.29453 9.054 3.31108C9.04096 3.32761 9.03132 3.34655 9.0256 3.36681C9.01989 3.38708 9.01821 3.40828 9.0207 3.42918C9.02317 3.45009 9.02973 3.47031 9.04002 3.48868L9.63319 4.60786L9.83464 4.9548L9.65557 5.04433L9.4877 5.14506C8.49473 5.74164 7.76637 6.69413 7.45079 7.8087C7.36344 8.09953 7.31453 8.40054 7.3053 8.70404H17.2436C17.2326 8.40151 17.1875 8.10115 17.1093 7.8087ZM10.0361 7.21554C9.94755 7.21554 9.861 7.18928 9.78738 7.14009C9.71376 7.09091 9.65638 7.02099 9.6225 6.93919C9.58861 6.85739 9.57975 6.76737 9.59702 6.68054C9.6143 6.59369 9.65693 6.51393 9.71953 6.45132C9.78215 6.38871 9.86191 6.34607 9.94875 6.3288C10.0356 6.31153 10.1256 6.3204 10.2074 6.35428C10.2892 6.38816 10.3591 6.44554 10.4083 6.51916C10.4575 6.59278 10.4838 6.67933 10.4838 6.76787C10.4838 6.8866 10.4366 7.00047 10.3526 7.08443C10.2686 7.16838 10.1548 7.21554 10.0361 7.21554ZM14.5128 7.21554C14.4243 7.21554 14.3376 7.18928 14.2641 7.14009C14.1905 7.09091 14.1331 7.02099 14.0991 6.93919C14.0653 6.85739 14.0564 6.76737 14.0737 6.68054C14.091 6.59369 14.1336 6.51393 14.1963 6.45132C14.2589 6.38871 14.3386 6.34607 14.4255 6.3288C14.5123 6.31153 14.6023 6.3204 14.6841 6.35428C14.766 6.38816 14.8358 6.44554 14.885 6.51916C14.9342 6.59278 14.9605 6.67933 14.9605 6.76787C14.9605 6.8866 14.9133 7.00047 14.8293 7.08443C14.7454 7.16838 14.6315 7.21554 14.5128 7.21554Z" fill="white"/>
</g>
</mask>
<g mask="url(#mask0_5_1418)">
<rect x="0.23999" y="0.25" width="24" height="24" fill="#354D6F"/>
</g>
<defs>
<clipPath id="clip0_5_1418">
<rect width="24" height="24" fill="white" transform="translate(0.23999 0.25)"/>
</clipPath>
</defs>
</svg>
