<svg width="20" height="19" viewBox="0 0 20 19" fill="none" xmlns="http://www.w3.org/2000/svg">
<g clip-path="url(#clip0_8_4111)">
<g clip-path="url(#clip1_8_4111)">
<path d="M6.99751 19.3194C4.17603 19.3031 1.84216 13.5435 1.84216 10.6103C1.84216 5.81886 5.43653 4.7699 6.82178 4.7699C7.44604 4.7699 8.11264 5.01506 8.70058 5.232C9.11173 5.38333 9.53695 5.53954 9.77344 5.53954C9.91499 5.53954 10.2486 5.40665 10.5431 5.29005C11.1712 5.04001 11.9527 4.72925 12.8628 4.72925H12.8683C13.5479 4.72925 15.6083 4.87839 16.8472 6.73876L17.1374 7.17483L16.7197 7.48996C16.1232 7.94013 15.0345 8.76131 15.0345 10.3879C15.0345 12.3145 16.2673 13.0554 16.8597 13.4117C17.1211 13.569 17.3917 13.7312 17.3917 14.0859C17.3917 14.3175 15.5433 19.2906 12.859 19.2906C12.2022 19.2906 11.7379 19.0932 11.3284 18.9191C10.914 18.7428 10.5566 18.5909 9.96594 18.5909C9.66653 18.5909 9.28794 18.7325 8.88712 18.8828C8.33938 19.0872 7.71942 19.3194 7.01594 19.3194H6.99751Z" fill="#334D6E"/>
<path d="M13.1472 0.361816C13.2171 2.88244 11.4144 4.63115 9.61391 4.52147C9.31721 2.50992 11.4142 0.361816 13.1472 0.361816Z" fill="#334D6E"/>
</g>
</g>
<defs>
<clipPath id="clip0_8_4111">
<rect width="18.7568" height="18.7568" fill="white" transform="translate(0.432373 0.243164)"/>
</clipPath>
<clipPath id="clip1_8_4111">
<rect width="19.1946" height="19.1946" fill="white" transform="translate(0.0176392 0.243164)"/>
</clipPath>
</defs>
</svg>
