<svg width="21" height="21" viewBox="0 0 21 21" fill="none" xmlns="http://www.w3.org/2000/svg">
<path d="M18.9472 6.82081V15.7764C18.9472 17.1486 18.8208 18.1236 18.4958 18.8187C18.4958 18.8278 18.4868 18.8458 18.4777 18.8548C18.2791 19.1076 18.0173 19.234 17.7104 19.234C17.2319 19.234 16.6542 18.918 16.0312 18.25C15.291 17.4555 14.1534 17.5187 13.5034 18.3854L12.5917 19.5951C12.2306 20.0826 11.7521 20.3264 11.2736 20.3264C10.7951 20.3264 10.3166 20.0826 9.95551 19.5951L9.03472 18.3764C8.39374 17.5187 7.26524 17.4555 6.52497 18.241L6.51593 18.25C5.49579 19.3423 4.59305 19.5048 4.06944 18.8548C4.06041 18.8458 4.05136 18.8278 4.05136 18.8187C3.72636 18.1236 3.59998 17.1486 3.59998 15.7764V6.82081C3.59998 5.44859 3.72636 4.47359 4.05136 3.77845C4.05136 3.76942 4.05138 3.7604 4.06944 3.75137C4.58402 3.09234 5.49579 3.25484 6.51593 4.3472L6.52497 4.35623C7.26524 5.14165 8.39374 5.07845 9.03472 4.22081L9.95551 3.00206C10.3166 2.51456 10.7951 2.27081 11.2736 2.27081C11.7521 2.27081 12.2306 2.51456 12.5917 3.00206L13.5034 4.21179C14.1534 5.07845 15.291 5.14165 16.0312 4.3472C16.6542 3.67915 17.2319 3.36317 17.7104 3.36317C18.0173 3.36317 18.2791 3.49859 18.4777 3.75137C18.4958 3.7604 18.4958 3.76942 18.4958 3.77845C18.8208 4.47359 18.9472 5.44859 18.9472 6.82081Z" stroke="#0A99EF" stroke-width="1.05921" stroke-linecap="round" stroke-linejoin="round"/>
<path d="M8.11389 9.71875H15.3361" stroke="#0A99EF" stroke-width="1.05921" stroke-linecap="round" stroke-linejoin="round"/>
<path d="M8.11389 12.8796H13.5306" stroke="#0A99EF" stroke-width="1.05921" stroke-linecap="round" stroke-linejoin="round"/>
</svg>
