<svg width="25" height="25" viewBox="0 0 25 25" fill="none" xmlns="http://www.w3.org/2000/svg">
<path d="M21.6667 7.62602V18.3727C21.6667 20.0194 21.515 21.1894 21.125 22.0235C21.125 22.0344 21.1141 22.056 21.1033 22.0669C20.865 22.3702 20.5508 22.5219 20.1825 22.5219C19.6083 22.5219 18.915 22.1427 18.1675 21.341C17.2792 20.3877 15.9141 20.4635 15.1341 21.5035L14.04 22.9552C13.6067 23.5402 13.0325 23.8327 12.4583 23.8327C11.8842 23.8327 11.31 23.5402 10.8766 22.9552L9.77169 21.4927C9.00252 20.4635 7.64832 20.3877 6.75999 21.3302L6.74915 21.341C5.52498 22.6519 4.44169 22.8469 3.81335 22.0669C3.80252 22.056 3.79167 22.0344 3.79167 22.0235C3.40167 21.1894 3.25 20.0194 3.25 18.3727V7.62602C3.25 5.97935 3.40167 4.80935 3.79167 3.97518C3.79167 3.96435 3.79169 3.95352 3.81335 3.94268C4.43085 3.15185 5.52498 3.34685 6.74915 4.65768L6.75999 4.66852C7.64832 5.61102 9.00252 5.53518 9.77169 4.50602L10.8766 3.04352C11.31 2.45852 11.8842 2.16602 12.4583 2.16602C13.0325 2.16602 13.6067 2.45852 14.04 3.04352L15.1341 4.49518C15.9141 5.53518 17.2792 5.61102 18.1675 4.65768C18.915 3.85602 19.6083 3.47685 20.1825 3.47685C20.5508 3.47685 20.865 3.63935 21.1033 3.94268C21.125 3.95352 21.125 3.96435 21.125 3.97518C21.515 4.80935 21.6667 5.97935 21.6667 7.62602Z" stroke="#7D7D9E" stroke-width="1.05921" stroke-linecap="round" stroke-linejoin="round"/>
<path d="M8.66663 11.1035H17.3333" stroke="#7D7D9E" stroke-width="1.05921" stroke-linecap="round" stroke-linejoin="round"/>
<path d="M8.66663 14.8965H15.1666" stroke="#7D7D9E" stroke-width="1.05921" stroke-linecap="round" stroke-linejoin="round"/>
</svg>
