<svg width="120" height="40" viewBox="0 0 120 40" fill="none" xmlns="http://www.w3.org/2000/svg">
<path d="M35.9635 28.7764V11.5032H42.4409C43.7679 11.5032 44.8812 11.7338 45.7809 12.1948C46.6861 12.6559 47.3693 13.3025 47.8304 14.1347C48.2971 14.9612 48.5304 15.9255 48.5304 17.0276C48.5304 18.1353 48.2943 19.0968 47.8219 19.9121C47.3552 20.7218 46.6665 21.3487 45.7556 21.7929C44.8447 22.2315 43.7257 22.4508 42.3988 22.4508H37.7853V19.8531H41.977C42.753 19.8531 43.3884 19.7462 43.8832 19.5326C44.378 19.3133 44.7435 18.9956 44.9796 18.5795C45.2214 18.1578 45.3423 17.6405 45.3423 17.0276C45.3423 16.4147 45.2214 15.8918 44.9796 15.4589C44.7378 15.0203 44.3695 14.6885 43.8747 14.4636C43.3799 14.2331 42.7417 14.1178 41.9602 14.1178H39.0926V28.7764H35.9635ZM44.8868 20.9495L49.163 28.7764H45.6712L41.471 20.9495H44.8868ZM56.8254 29.0295C55.5266 29.0295 54.4048 28.7596 53.4602 28.2198C52.5212 27.6744 51.7987 26.904 51.2926 25.9088C50.7866 24.908 50.5335 23.73 50.5335 22.3749C50.5335 21.0423 50.7866 19.8727 51.2926 18.8663C51.8043 17.8542 52.5184 17.067 53.4349 16.5047C54.3514 15.9368 55.4282 15.6528 56.6652 15.6528C57.4636 15.6528 58.2171 15.7822 58.9255 16.0408C59.6396 16.2938 60.2694 16.6874 60.8148 17.2216C61.3658 17.7558 61.7988 18.4361 62.1137 19.2627C62.4285 20.0836 62.586 21.062 62.586 22.1978V23.134H51.9673V21.076H59.6593C59.6537 20.4913 59.5272 19.9711 59.2798 19.5157C59.0324 19.0546 58.6866 18.692 58.2424 18.4277C57.8038 18.1634 57.2921 18.0313 56.7073 18.0313C56.0832 18.0313 55.535 18.1831 55.0627 18.4867C54.5904 18.7847 54.2221 19.1783 53.9578 19.6675C53.6992 20.1511 53.567 20.6824 53.5614 21.2616V23.0581C53.5614 23.8115 53.6992 24.4581 53.9747 24.9979C54.2502 25.5321 54.6353 25.9425 55.1302 26.2293C55.625 26.5104 56.2041 26.651 56.8676 26.651C57.3118 26.651 57.7138 26.5892 58.0737 26.4655C58.4335 26.3361 58.7456 26.1478 59.0099 25.9004C59.2741 25.653 59.4738 25.3465 59.6087 24.981L62.4595 25.3015C62.2795 26.055 61.9365 26.7129 61.4305 27.2751C60.9301 27.8318 60.2891 28.2648 59.5075 28.574C58.7259 28.8776 57.8319 29.0295 56.8254 29.0295ZM76.3695 15.8215L71.756 28.7764H68.3824L63.7689 15.8215H67.0245L70.0017 25.4449H70.1367L73.1224 15.8215H76.3695ZM81.5355 11.5032V28.7764H78.4823V11.5032H81.5355ZM92.9322 23.3279V15.8215H95.9853V28.7764H93.0249V26.4739H92.89C92.5976 27.1992 92.1169 27.7924 91.4477 28.2535C90.7843 28.7146 89.9661 28.9451 88.9934 28.9451C88.1444 28.9451 87.3937 28.7567 86.7415 28.38C86.0948 27.9977 85.5888 27.4438 85.2233 26.7185C84.8578 25.9875 84.6751 25.1047 84.6751 24.0702V15.8215H87.7283V23.5978C87.7283 24.4188 87.9532 25.071 88.403 25.5546C88.8528 26.0381 89.4432 26.2799 90.1742 26.2799C90.624 26.2799 91.0598 26.1703 91.4815 25.951C91.9032 25.7317 92.249 25.4056 92.5189 24.9726C92.7944 24.534 92.9322 23.9858 92.9322 23.3279ZM99.125 28.7764V15.8215H102.043V18.0228H102.195C102.465 17.2806 102.912 16.7015 103.536 16.2854C104.16 15.8637 104.905 15.6528 105.771 15.6528C106.648 15.6528 107.388 15.8665 107.989 16.2938C108.597 16.7155 109.024 17.2919 109.271 18.0228H109.406C109.693 17.3031 110.177 16.7296 110.857 16.3023C111.543 15.8693 112.355 15.6528 113.294 15.6528C114.486 15.6528 115.459 16.0296 116.213 16.783C116.966 17.5365 117.343 18.6357 117.343 20.0808V28.7764H114.281V20.5531C114.281 19.749 114.068 19.1615 113.64 18.7904C113.213 18.4136 112.69 18.2253 112.071 18.2253C111.335 18.2253 110.759 18.4558 110.342 18.9169C109.932 19.3723 109.727 19.9655 109.727 20.6965V28.7764H106.733V20.4266C106.733 19.7575 106.53 19.2233 106.125 18.8241C105.726 18.4249 105.203 18.2253 104.557 18.2253C104.118 18.2253 103.719 18.3377 103.359 18.5626C102.999 18.7819 102.712 19.094 102.499 19.4988C102.285 19.898 102.178 20.3647 102.178 20.8989V28.7764H99.125Z" fill="#354D6F"/>
<path d="M27.3826 11.8782C27.3826 5.31624 22.486 0 16.4476 0H7.15365C3.20429 0 0 3.48068 0 7.7707V17.0384C0 11.1641 6.51084 8.19124 10.375 12.304L20.3847 22.9577C24.4778 21.2411 27.3826 16.93 27.3826 11.8782Z" fill="url(#paint0_linear_11_12703)"/>
<path d="M0 23.7538V33.1776C0 36.8381 2.73193 39.8057 6.10179 39.8057H21.2662C26.7324 39.8057 29.4425 32.5984 25.5369 28.4406L20.3823 22.9551C19.16 23.4682 17.833 23.7512 16.4451 23.7512H0V23.7538Z" fill="url(#paint1_linear_11_12703)"/>
<path d="M0 17.0385V23.7539H16.4475C17.8354 23.7539 19.1624 23.4709 20.3847 22.9578L10.375 12.3041C6.51084 8.19133 0 11.1642 0 17.0385Z" fill="#0044BC"/>
<defs>
<linearGradient id="paint0_linear_11_12703" x1="22.0161" y1="-0.121665" x2="7.59503" y2="15.5802" gradientUnits="userSpaceOnUse">
<stop stop-color="#00D4EF"/>
<stop offset="1" stop-color="#1356ED"/>
</linearGradient>
<linearGradient id="paint1_linear_11_12703" x1="1.48771" y1="38.5018" x2="22.7338" y2="26.4374" gradientUnits="userSpaceOnUse">
<stop stop-color="#FFB48A"/>
<stop offset="1" stop-color="#EFB511"/>
</linearGradient>
</defs>
</svg>
