<svg width="41" height="31" viewBox="0 0 41 31" fill="none" xmlns="http://www.w3.org/2000/svg">
<g clip-path="url(#clip0_6_1580)">
<g clip-path="url(#clip1_6_1580)">
<g clip-path="url(#clip2_6_1580)">
<path fill-rule="evenodd" clip-rule="evenodd" d="M17.2337 0.125H23.2077C25.6017 0.124986 27.5092 0.124974 29.0553 0.247441C30.6412 0.373059 31.9982 0.635781 33.2583 1.24422C35.299 2.22965 36.9946 3.80845 38.123 5.77383C38.8196 6.98734 39.1784 8.32221 39.4166 9.89512C39.649 11.4286 39.7848 13.3311 39.9554 15.719L40.4223 22.2561C40.7261 26.5082 37.3584 30.125 33.0955 30.125C30.9154 30.125 28.8481 29.1567 27.4524 27.482L26.749 26.6378C26.0639 25.8157 25.858 25.5785 25.6424 25.3949C25.1304 24.959 24.5106 24.6687 23.8479 24.5545C23.5688 24.5064 23.2548 24.5 22.1846 24.5H18.2567C17.1865 24.5 16.8725 24.5064 16.5934 24.5545C15.9308 24.6687 15.311 24.959 14.799 25.3949C14.5834 25.5785 14.3775 25.8157 13.6924 26.6378L12.9889 27.482C11.5933 29.1567 9.52593 30.125 7.34592 30.125C3.08299 30.125 -0.284676 26.5082 0.0190456 22.2561L0.485973 15.7191C0.656528 13.3311 0.792414 11.4286 1.02473 9.89512C1.26301 8.32221 1.62175 6.98734 2.31842 5.77384C3.44674 3.80845 5.14234 2.22965 7.18312 1.24422C8.44318 0.635781 9.80021 0.373059 11.3861 0.247441C12.9322 0.124974 14.8396 0.124986 17.2337 0.125ZM11.6822 3.98573C10.3244 4.09328 9.48522 4.2969 8.81372 4.62115C7.4532 5.2781 6.32281 6.33063 5.57059 7.64089C5.19933 8.28758 4.93644 9.1101 4.73242 10.4568C4.52496 11.8262 4.39828 13.5806 4.22083 16.0649L3.75952 22.5233C3.61085 24.6046 5.25928 26.375 7.34592 26.375C8.41301 26.375 9.42496 25.901 10.1081 25.0813L10.8115 24.2372C10.8419 24.2007 10.8718 24.1648 10.9014 24.1293C11.4576 23.4614 11.8768 22.9579 12.3678 22.5399C13.3917 21.6679 14.6312 21.0874 15.9566 20.8589C16.592 20.7494 17.2472 20.7497 18.1164 20.75C18.1626 20.75 18.2093 20.75 18.2567 20.75H22.1846C22.232 20.75 22.2788 20.75 22.325 20.75C23.1942 20.7497 23.8493 20.7494 24.4848 20.859C25.8101 21.0874 27.0497 21.6679 28.0736 22.5399C28.5646 22.9579 28.9839 23.4614 29.5401 24.1294C29.5696 24.1648 29.5995 24.2007 29.6299 24.2372L30.3333 25.0813C31.0164 25.901 32.0284 26.375 33.0955 26.375C35.1821 26.375 36.8305 24.6046 36.6819 22.5233L36.2205 16.0649C36.0431 13.5806 35.9164 11.8262 35.709 10.4568C35.5049 9.1101 35.242 8.28758 34.8708 7.64089C34.1186 6.33063 32.9882 5.2781 31.6277 4.62115C30.9562 4.2969 30.117 4.09328 28.7592 3.98573C27.3785 3.87637 25.6195 3.875 23.1289 3.875H17.3125C14.8219 3.875 13.0629 3.87637 11.6822 3.98573ZM12.7207 7.625C13.7562 7.625 14.5957 8.46447 14.5957 9.5V11.375H16.4707C17.5062 11.375 18.3457 12.2145 18.3457 13.25C18.3457 14.2855 17.5062 15.125 16.4707 15.125H14.5957V17C14.5957 18.0355 13.7562 18.875 12.7207 18.875C11.6852 18.875 10.8457 18.0355 10.8457 17V15.125H8.97069C7.93515 15.125 7.09569 14.2855 7.09569 13.25C7.09569 12.2145 7.93515 11.375 8.97069 11.375H10.8457V9.5C10.8457 8.46447 11.6852 7.625 12.7207 7.625ZM29.5957 11.375C29.5957 10.3395 30.4352 9.5 31.4707 9.5H31.4894C32.525 9.5 33.3644 10.3395 33.3644 11.375C33.3644 12.4105 32.525 13.25 31.4894 13.25H31.4707C30.4352 13.25 29.5957 12.4105 29.5957 11.375ZM23.9707 15.125C23.9707 14.0895 24.8102 13.25 25.8457 13.25H25.8644C26.9 13.25 27.7394 14.0895 27.7394 15.125C27.7394 16.1605 26.9 17 25.8644 17H25.8457C24.8102 17 23.9707 16.1605 23.9707 15.125Z" fill="#FD9900"/>
</g>
</g>
</g>
<defs>
<clipPath id="clip0_6_1580">
<rect width="41" height="30" fill="white" transform="translate(0 0.125)"/>
</clipPath>
<clipPath id="clip1_6_1580">
<rect width="41" height="30" fill="white" transform="translate(0 0.125)"/>
</clipPath>
<clipPath id="clip2_6_1580">
<rect width="41" height="30" fill="white" transform="translate(0 0.125)"/>
</clipPath>
</defs>
</svg>
