<svg width="31" height="31" viewBox="0 0 31 31" fill="none" xmlns="http://www.w3.org/2000/svg">
<g clip-path="url(#clip0_6_1589)">
<g clip-path="url(#clip1_6_1589)">
<g clip-path="url(#clip2_6_1589)">
<path fill-rule="evenodd" clip-rule="evenodd" d="M8.68182 6.26136C8.68182 2.87234 11.4292 0.125 14.8182 0.125C16.5447 0.125 18.1038 0.838571 19.2176 1.98373C19.9598 1.66509 20.7775 1.48864 21.6364 1.48864C25.0254 1.48864 27.7727 4.23598 27.7727 7.625C27.7727 11.014 25.0254 13.7614 21.6364 13.7614C19.9107 13.7614 18.3514 13.049 17.2365 11.9024C16.4938 12.2211 15.6758 12.3977 14.8182 12.3977C11.4292 12.3977 8.68182 9.65038 8.68182 6.26136ZM15.8005 9.52716C15.6055 8.92829 15.5 8.28896 15.5 7.625C15.5 6.09747 16.0582 4.7003 16.9816 3.62631C16.3924 3.14182 15.6388 2.85227 14.8182 2.85227C12.9354 2.85227 11.4091 4.37857 11.4091 6.26136C11.4091 8.14415 12.9354 9.67045 14.8182 9.67045C15.1603 9.67045 15.4899 9.62039 15.8005 9.52716ZM21.6364 4.21591C19.7536 4.21591 18.2273 5.74221 18.2273 7.625C18.2273 9.50779 19.7536 11.0341 21.6364 11.0341C23.5192 11.0341 25.0455 9.50779 25.0455 7.625C25.0455 5.74221 23.5192 4.21591 21.6364 4.21591ZM4.00194 15.125H5.17984C5.52401 15.125 5.85919 15.1249 6.14305 15.1481C6.45476 15.1736 6.82258 15.2337 7.19271 15.4223C7.70588 15.6837 8.1231 16.1009 8.38457 16.6141C8.49227 16.8255 8.55806 17.0361 8.59943 17.236L10.7721 16.3274L10.7846 16.3218C10.8054 16.3124 10.8347 16.2993 10.8719 16.283C10.9462 16.2503 11.0519 16.2045 11.1821 16.15C11.4416 16.0413 11.8034 15.8958 12.2114 15.7496C12.9654 15.4793 14.0924 15.125 15.0134 15.125C15.6668 15.125 16.3168 15.2028 16.9513 15.3567L20.2042 16.1478C21.6954 16.5093 22.7943 17.7941 22.8702 19.331L24.8924 17.8556C26.282 16.8424 28.2214 16.9725 29.457 18.1744C30.8469 19.5265 30.8484 21.7346 29.457 23.0866L26.5149 25.9486C25.5303 26.9065 24.2789 27.556 22.9239 27.82L18.7652 28.6291C17.7484 28.8266 16.699 28.803 15.6912 28.5574L11.9309 27.6437L11.9278 27.6429C11.5855 27.5589 11.2334 27.5166 10.8777 27.5166H8.66389C8.6623 27.5401 8.66059 27.5633 8.65872 27.5862C8.63325 27.8979 8.57316 28.2658 8.38457 28.6359C8.12309 29.149 7.70587 29.5663 7.19271 29.8277C6.82258 30.0163 6.45476 30.0764 6.14305 30.1019C5.8592 30.1251 5.52404 30.125 5.17989 30.125H4.00204C3.65785 30.125 3.32265 30.1251 3.03878 30.1019C2.72706 30.0764 2.35924 30.0163 1.98912 29.8277C1.47596 29.5663 1.05874 29.149 0.797262 28.6359C0.608675 28.2658 0.548583 27.8979 0.523114 27.5862C0.499922 27.3024 0.499963 26.9672 0.500003 26.623L0.500004 18.627C0.499963 18.2828 0.499923 17.9476 0.523114 17.6638C0.548583 17.3521 0.608675 16.9842 0.797262 16.6141C1.05873 16.1009 1.47595 15.6837 1.98912 15.4223C2.35925 15.2337 2.72707 15.1736 3.03878 15.1481C3.32263 15.1249 3.65779 15.125 4.00194 15.125ZM8.68182 24.7893H10.8777C11.4495 24.7893 12.0194 24.8573 12.5763 24.9939C12.5769 24.994 12.5774 24.9941 12.578 24.9943L16.3359 25.9075C16.9601 26.0595 17.6121 26.0747 18.2443 25.952M18.2443 25.952L22.4024 25.143C22.4023 25.1431 22.4025 25.143 22.4024 25.143C23.2443 24.979 24.0141 24.5765 24.6133 23.9937L27.5554 21.1317C27.8436 20.8518 27.8456 20.4117 27.5554 20.1294C27.2781 19.8596 26.8216 19.8242 26.4995 20.0591L23.0719 22.5598C22.3438 23.092 21.4636 23.3748 20.5641 23.3748H17.253C16.4999 23.3748 15.8893 22.7643 15.8893 22.0112C15.8893 21.2581 16.4998 20.6475 17.2529 20.6475L19.3605 20.6474C19.831 20.6474 20.1471 20.2866 20.1471 19.9194V19.5011C20.1471 19.1936 19.9288 18.8873 19.5615 18.7982L16.3085 18.0071C15.8842 17.9042 15.45 17.8523 15.0134 17.8523C14.6187 17.8523 13.8971 18.0426 13.1315 18.317C12.7797 18.4431 12.4638 18.57 12.2357 18.6655C12.1221 18.7131 12.0314 18.7524 11.9703 18.7793L11.902 18.8096L11.8861 18.8168L11.8834 18.818C11.8699 18.8242 11.856 18.8302 11.8423 18.836L8.68182 20.1577V24.7893M5.95455 19.2814V26.5795C5.95455 26.9839 5.95349 27.2052 5.9405 27.3641C5.93998 27.3705 5.93946 27.3764 5.93894 27.3821C5.93328 27.3826 5.92729 27.3832 5.92096 27.3837C5.76198 27.3967 5.54072 27.3977 5.13637 27.3977H4.04546C3.64111 27.3977 3.41985 27.3967 3.26087 27.3837C3.25455 27.3832 3.24855 27.3826 3.24289 27.3821C3.24237 27.3764 3.24185 27.3705 3.24133 27.3641C3.22834 27.2051 3.22728 26.9839 3.22728 26.5795V18.6705C3.22728 18.2661 3.22834 18.0448 3.24133 17.8859C3.24185 17.8795 3.24237 17.8735 3.24289 17.8679C3.24855 17.8674 3.25454 17.8668 3.26087 17.8663C3.41985 17.8533 3.64111 17.8523 4.04546 17.8523H5.13637C5.54073 17.8523 5.76198 17.8533 5.92096 17.8663C5.92729 17.8668 5.93328 17.8674 5.93894 17.8679C5.93946 17.8735 5.93998 17.8795 5.9405 17.8859C5.95349 18.0448 5.95455 18.2661 5.95455 18.6705V19.2194C5.95408 19.24 5.95408 19.2607 5.95455 19.2814Z" fill="#FFCC00"/>
</g>
</g>
</g>
<defs>
<clipPath id="clip0_6_1589">
<rect width="30" height="30" fill="white" transform="translate(0.5 0.125)"/>
</clipPath>
<clipPath id="clip1_6_1589">
<rect width="30" height="30" fill="white" transform="translate(0.5 0.125)"/>
</clipPath>
<clipPath id="clip2_6_1589">
<rect width="30" height="30" fill="white" transform="translate(0.5 0.125)"/>
</clipPath>
</defs>
</svg>
