<svg width="31" height="31" viewBox="0 0 31 31" fill="none" xmlns="http://www.w3.org/2000/svg">
<g filter="url(#filter0_dd_146_222)">
<g clip-path="url(#clip0_146_222)">
<circle cx="15.1429" cy="15" r="11.8125" fill="#FFA831" stroke="#EE8F0F" stroke-width="0.375"/>
<circle cx="15.1429" cy="15" r="10.3125" fill="url(#paint0_linear_146_222)" stroke="#FDBD4D" stroke-width="0.375"/>
<g filter="url(#filter1_d_146_222)">
<path d="M9.29995 17.2642V13.6648H10.3017V17.2642H9.29995ZM7.99988 15.9666V14.9624H11.5993V15.9666H7.99988ZM14.5882 18.0696C14.217 18.0696 13.8872 18.0025 13.5988 17.8683C13.3105 17.734 13.0826 17.5492 12.9153 17.3139C12.7495 17.0786 12.6634 16.8085 12.6567 16.5036H13.8499C13.8599 16.6908 13.9361 16.8416 14.0786 16.956C14.2211 17.0687 14.391 17.125 14.5882 17.125C14.7423 17.125 14.879 17.091 14.9984 17.0231C15.1177 16.9551 15.2113 16.8598 15.2792 16.7372C15.3472 16.6129 15.3803 16.4704 15.3787 16.3097C15.3803 16.1456 15.3464 16.0022 15.2768 15.8796C15.2088 15.757 15.1144 15.6617 14.9934 15.5938C14.8741 15.5241 14.7365 15.4893 14.5807 15.4893C14.4332 15.4877 14.2932 15.52 14.1606 15.5863C14.0297 15.6526 13.9303 15.7429 13.8623 15.8572L12.7761 15.6534L12.9973 12.9091H16.2636V13.9009H14.009L13.8922 15.1016H13.922C14.0065 14.9607 14.1424 14.8447 14.3297 14.7536C14.5186 14.6607 14.7332 14.6143 14.9735 14.6143C15.2784 14.6143 15.5502 14.6856 15.7888 14.8281C16.0291 14.969 16.218 15.1645 16.3556 15.4148C16.4948 15.665 16.5644 15.9517 16.5644 16.2749C16.5644 16.6245 16.4815 16.9344 16.3158 17.2045C16.1518 17.4747 15.9214 17.6868 15.6248 17.8409C15.3298 17.9934 14.9843 18.0696 14.5882 18.0696ZM19.4054 18.1243C18.9613 18.1243 18.5784 18.0191 18.2569 17.8086C17.9355 17.5965 17.6877 17.2924 17.5137 16.8963C17.3397 16.4986 17.2535 16.0205 17.2552 15.462C17.2568 14.9035 17.3438 14.4296 17.5162 14.0401C17.6902 13.649 17.9371 13.3516 18.2569 13.1477C18.5784 12.9422 18.9613 12.8395 19.4054 12.8395C19.8495 12.8395 20.2323 12.9422 20.5538 13.1477C20.877 13.3516 21.1256 13.649 21.2996 14.0401C21.4736 14.4312 21.5597 14.9052 21.5581 15.462C21.5581 16.0221 21.4711 16.5011 21.2971 16.8988C21.1231 17.2965 20.8753 17.6006 20.5538 17.8111C20.234 18.0199 19.8512 18.1243 19.4054 18.1243ZM19.4054 17.1175C19.6705 17.1175 19.8851 16.9825 20.0492 16.7124C20.2133 16.4406 20.2945 16.0238 20.2928 15.462C20.2928 15.0941 20.2555 14.7908 20.181 14.5522C20.1064 14.3119 20.0028 14.1329 19.8702 14.0153C19.7377 13.8976 19.5827 13.8388 19.4054 13.8388C19.1419 13.8388 18.9289 13.9722 18.7665 14.239C18.6041 14.5041 18.5221 14.9118 18.5204 15.462C18.5188 15.8349 18.5544 16.1439 18.6273 16.3892C18.7019 16.6345 18.8063 16.8176 18.9405 16.9386C19.0748 17.0579 19.2297 17.1175 19.4054 17.1175Z" fill="#FFF3D1"/>
</g>
</g>
</g>
<defs>
<filter id="filter0_dd_146_222" x="0.142883" y="0.75" width="30" height="30" filterUnits="userSpaceOnUse" color-interpolation-filters="sRGB">
<feFlood flood-opacity="0" result="BackgroundImageFix"/>
<feColorMatrix in="SourceAlpha" type="matrix" values="0 0 0 0 0 0 0 0 0 0 0 0 0 0 0 0 0 0 127 0" result="hardAlpha"/>
<feOffset dy="0.75"/>
<feGaussianBlur stdDeviation="1.5"/>
<feColorMatrix type="matrix" values="0 0 0 0 0 0 0 0 0 0 0 0 0 0 0 0 0 0 0.12 0"/>
<feBlend mode="normal" in2="BackgroundImageFix" result="effect1_dropShadow_146_222"/>
<feColorMatrix in="SourceAlpha" type="matrix" values="0 0 0 0 0 0 0 0 0 0 0 0 0 0 0 0 0 0 127 0" result="hardAlpha"/>
<feOffset/>
<feGaussianBlur stdDeviation="0.375"/>
<feColorMatrix type="matrix" values="0 0 0 0 0 0 0 0 0 0 0 0 0 0 0 0 0 0 0.039 0"/>
<feBlend mode="normal" in2="effect1_dropShadow_146_222" result="effect2_dropShadow_146_222"/>
<feBlend mode="normal" in="SourceGraphic" in2="effect2_dropShadow_146_222" result="shape"/>
</filter>
<filter id="filter1_d_146_222" x="5.99988" y="12.8396" width="17.5607" height="9.28467" filterUnits="userSpaceOnUse" color-interpolation-filters="sRGB">
<feFlood flood-opacity="0" result="BackgroundImageFix"/>
<feColorMatrix in="SourceAlpha" type="matrix" values="0 0 0 0 0 0 0 0 0 0 0 0 0 0 0 0 0 0 127 0" result="hardAlpha"/>
<feOffset dy="2"/>
<feGaussianBlur stdDeviation="1"/>
<feComposite in2="hardAlpha" operator="out"/>
<feColorMatrix type="matrix" values="0 0 0 0 0 0 0 0 0 0 0 0 0 0 0 0 0 0 0.1 0"/>
<feBlend mode="normal" in2="BackgroundImageFix" result="effect1_dropShadow_146_222"/>
<feBlend mode="normal" in="SourceGraphic" in2="effect1_dropShadow_146_222" result="shape"/>
</filter>
<linearGradient id="paint0_linear_146_222" x1="23.6741" y1="20.9062" x2="5.76788" y2="10.5" gradientUnits="userSpaceOnUse">
<stop stop-color="#FEC258"/>
<stop offset="0.493004" stop-color="#F8AA1E"/>
<stop offset="0.978599" stop-color="#FEC258"/>
</linearGradient>
<clipPath id="clip0_146_222">
<path d="M3.14288 15C3.14288 8.37258 8.51547 3 15.1429 3C21.7703 3 27.1429 8.37258 27.1429 15C27.1429 21.6274 21.7703 27 15.1429 27C8.51547 27 3.14288 21.6274 3.14288 15Z" fill="white"/>
</clipPath>
</defs>
</svg>
