<svg width="21" height="20" viewBox="0 0 21 20" fill="none" xmlns="http://www.w3.org/2000/svg">
<path d="M18.2951 8.70002L17.4785 12.1834C16.7785 15.1917 15.3951 16.4083 12.7951 16.1583C12.3785 16.125 11.9285 16.05 11.4451 15.9334L10.0451 15.6C6.57013 14.775 5.49513 13.0584 6.3118 9.57502L7.12847 6.08335C7.29513 5.37502 7.49513 4.75835 7.74513 4.25002C8.72013 2.23335 10.3785 1.69168 13.1618 2.35002L14.5535 2.67502C18.0451 3.49168 19.1118 5.21668 18.2951 8.70002Z" stroke="#0A99EF" stroke-width="1.8125" stroke-linecap="round" stroke-linejoin="round"/>
<path d="M12.795 16.1583C12.2783 16.5083 11.6283 16.8 10.8367 17.0583L9.52 17.4917C6.21167 18.5583 4.47 17.6667 3.395 14.3583L2.32834 11.0667C1.26167 7.75833 2.145 6.00833 5.45334 4.94167L6.77 4.50833C7.11167 4.4 7.43667 4.30833 7.745 4.25C7.495 4.75833 7.295 5.375 7.12834 6.08333L6.31167 9.575C5.495 13.0583 6.57 14.775 10.045 15.6L11.445 15.9333C11.9283 16.05 12.3783 16.125 12.795 16.1583Z" stroke="#0A99EF" stroke-width="1.8125" stroke-linecap="round" stroke-linejoin="round"/>
<path d="M10.778 7.10837L14.8197 8.13337" stroke="#0A99EF" stroke-width="1.8125" stroke-linecap="round" stroke-linejoin="round"/>
<path d="M9.96176 10.3333L12.3784 10.95" stroke="#0A99EF" stroke-width="1.8125" stroke-linecap="round" stroke-linejoin="round"/>
</svg>
