<svg width="24" height="24" viewBox="0 0 24 24" fill="none" xmlns="http://www.w3.org/2000/svg">
<path d="M21.6602 10.44L20.6802 14.62C19.8402 18.23 18.1802 19.69 15.0602 19.39C14.5602 19.35 14.0202 19.26 13.4402 19.12L11.7602 18.72C7.59018 17.73 6.30018 15.67 7.28018 11.49L8.26018 7.30001C8.46018 6.45001 8.70018 5.71001 9.00018 5.10001C10.1702 2.68001 12.1602 2.03001 15.5002 2.82001L17.1702 3.21001C21.3602 4.19001 22.6402 6.26001 21.6602 10.44Z" stroke="#7D7D9E" stroke-width="1.5" stroke-linecap="round" stroke-linejoin="round"/>
<path d="M15.06 19.3901C14.44 19.8101 13.66 20.1601 12.71 20.4701L11.13 20.9901C7.16001 22.2701 5.07001 21.2001 3.78001 17.2301L2.50001 13.2801C1.22001 9.3101 2.28001 7.2101 6.25001 5.9301L7.83001 5.4101C8.24001 5.2801 8.63001 5.1701 9.00001 5.1001C8.70001 5.7101 8.46001 6.4501 8.26001 7.3001L7.28001 11.4901C6.30001 15.6701 7.59001 17.7301 11.76 18.7201L13.44 19.1201C14.02 19.2601 14.56 19.3501 15.06 19.3901Z" stroke="#7D7D9E" stroke-width="1.5" stroke-linecap="round" stroke-linejoin="round"/>
<path d="M12.6396 8.53003L17.4896 9.76003" stroke="#7D7D9E" stroke-width="1.5" stroke-linecap="round" stroke-linejoin="round"/>
<path d="M11.6602 12.3999L14.5602 13.1399" stroke="#7D7D9E" stroke-width="1.5" stroke-linecap="round" stroke-linejoin="round"/>
</svg>
