<svg width="24" height="24" viewBox="0 0 24 24" fill="none" xmlns="http://www.w3.org/2000/svg">
<path d="M21.6602 10.44L20.6802 14.62C19.8402 18.23 18.1802 19.69 15.0602 19.39C14.5602 19.35 14.0202 19.26 13.4402 19.12L11.7602 18.72C7.59018 17.73 6.30018 15.67 7.28018 11.49L8.26018 7.30001C8.46018 6.45001 8.70018 5.71001 9.00018 5.10001C10.1702 2.68001 12.1602 2.03001 15.5002 2.82001L17.1702 3.21001C21.3602 4.19001 22.6402 6.26001 21.6602 10.44Z" stroke="#E8EFF8" stroke-width="1.5" stroke-linecap="round" stroke-linejoin="round"/>
<path d="M15.06 19.39C14.44 19.81 13.66 20.16 12.71 20.47L11.13 20.99C7.15998 22.27 5.06997 21.2 3.77997 17.23L2.49997 13.28C1.21997 9.31 2.27997 7.21 6.24997 5.93L7.82997 5.41C8.23997 5.28 8.62997 5.17 8.99997 5.1C8.69997 5.71 8.45997 6.45 8.25997 7.3L7.27997 11.49C6.29997 15.67 7.58998 17.73 11.76 18.72L13.44 19.12C14.02 19.26 14.56 19.35 15.06 19.39Z" stroke="#E8EFF8" stroke-width="1.5" stroke-linecap="round" stroke-linejoin="round"/>
<path d="M12.6396 8.53003L17.4896 9.76003" stroke="#E8EFF8" stroke-width="1.5" stroke-linecap="round" stroke-linejoin="round"/>
<path d="M11.6602 12.4L14.5602 13.14" stroke="#E8EFF8" stroke-width="1.5" stroke-linecap="round" stroke-linejoin="round"/>
</svg>
