<svg width="22" height="22" viewBox="0 0 22 22" fill="none" xmlns="http://www.w3.org/2000/svg">
<path d="M11.1 13.9583C12.4807 13.9583 13.6 12.8391 13.6 11.4583C13.6 10.0776 12.4807 8.95834 11.1 8.95834C9.71928 8.95834 8.6 10.0776 8.6 11.4583C8.6 12.8391 9.71928 13.9583 11.1 13.9583Z" stroke="#0A99EF" stroke-width="1.5" stroke-miterlimit="10" stroke-linecap="round" stroke-linejoin="round"/>
<path d="M2.76666 12.1917V10.725C2.76666 9.85834 3.475 9.14168 4.35 9.14168C5.85833 9.14168 6.475 8.07501 5.71666 6.76667C5.28333 6.01667 5.54166 5.04167 6.3 4.60834L7.74166 3.78334C8.4 3.39167 9.25 3.62501 9.64166 4.28334L9.73333 4.44167C10.4833 5.75001 11.7167 5.75001 12.475 4.44167L12.5667 4.28334C12.9583 3.62501 13.8083 3.39167 14.4667 3.78334L15.9083 4.60834C16.6667 5.04167 16.925 6.01667 16.4917 6.76667C15.7333 8.07501 16.35 9.14168 17.8583 9.14168C18.725 9.14168 19.4417 9.85001 19.4417 10.725V12.1917C19.4417 13.0583 18.7333 13.775 17.8583 13.775C16.35 13.775 15.7333 14.8417 16.4917 16.15C16.925 16.9083 16.6667 17.875 15.9083 18.3083L14.4667 19.1333C13.8083 19.525 12.9583 19.2917 12.5667 18.6333L12.475 18.475C11.725 17.1667 10.4917 17.1667 9.73333 18.475L9.64166 18.6333C9.25 19.2917 8.4 19.525 7.74166 19.1333L6.3 18.3083C5.54166 17.875 5.28333 16.9 5.71666 16.15C6.475 14.8417 5.85833 13.775 4.35 13.775C3.475 13.775 2.76666 13.0583 2.76666 12.1917Z" stroke="#0A99EF" stroke-width="1.4" stroke-miterlimit="10" stroke-linecap="round" stroke-linejoin="round"/>
</svg>
