<svg width="25" height="25" viewBox="0 0 25 25" fill="none" xmlns="http://www.w3.org/2000/svg">
<path d="M13 16C14.6569 16 16 14.6569 16 13C16 11.3431 14.6569 10 13 10C11.3431 10 10 11.3431 10 13C10 14.6569 11.3431 16 13 16Z" stroke="#7D7D9E" stroke-width="1.5" stroke-miterlimit="10" stroke-linecap="round" stroke-linejoin="round"/>
<path d="M3 13.8799V12.1199C3 11.0799 3.85 10.2199 4.9 10.2199C6.71 10.2199 7.45 8.93994 6.54 7.36994C6.02 6.46994 6.33 5.29994 7.24 4.77994L8.97 3.78994C9.76 3.31994 10.78 3.59994 11.25 4.38994L11.36 4.57994C12.26 6.14994 13.74 6.14994 14.65 4.57994L14.76 4.38994C15.23 3.59994 16.25 3.31994 17.04 3.78994L18.77 4.77994C19.68 5.29994 19.99 6.46994 19.47 7.36994C18.56 8.93994 19.3 10.2199 21.11 10.2199C22.15 10.2199 23.01 11.0699 23.01 12.1199V13.8799C23.01 14.9199 22.16 15.7799 21.11 15.7799C19.3 15.7799 18.56 17.0599 19.47 18.6299C19.99 19.5399 19.68 20.6999 18.77 21.2199L17.04 22.2099C16.25 22.6799 15.23 22.3999 14.76 21.6099L14.65 21.4199C13.75 19.8499 12.27 19.8499 11.36 21.4199L11.25 21.6099C10.78 22.3999 9.76 22.6799 8.97 22.2099L7.24 21.2199C6.33 20.6999 6.02 19.5299 6.54 18.6299C7.45 17.0599 6.71 15.7799 4.9 15.7799C3.85 15.7799 3 14.9199 3 13.8799Z" stroke="#7D7D9E" stroke-width="1.4" stroke-miterlimit="10" stroke-linecap="round" stroke-linejoin="round"/>
</svg>
