<svg width="15" height="15" viewBox="0 0 15 15" fill="none" xmlns="http://www.w3.org/2000/svg">
<path d="M8.58119 2.19374L9.68119 4.39374C9.83119 4.69999 10.2312 4.99374 10.5687 5.04999L12.5624 5.38124C13.8374 5.59374 14.1374 6.51874 13.2187 7.43124L11.6687 8.98124C11.4062 9.24374 11.2624 9.74999 11.3437 10.1125L11.7874 12.0312C12.1374 13.55 11.3312 14.1375 9.98744 13.3437L8.11869 12.2375C7.78119 12.0375 7.22494 12.0375 6.88119 12.2375L5.01244 13.3437C3.67494 14.1375 2.86244 13.5437 3.21244 12.0312L3.65619 10.1125C3.73744 9.74999 3.59369 9.24374 3.33119 8.98124L1.78119 7.43124C0.868693 6.51874 1.16244 5.59374 2.43744 5.38124L4.43119 5.04999C4.76244 4.99374 5.16244 4.69999 5.31244 4.39374L6.41244 2.19374C7.01244 0.999994 7.98744 0.999994 8.58119 2.19374Z" stroke="white" stroke-width="1.5" stroke-linecap="round" stroke-linejoin="round"/>
</svg>
