<svg width="25" height="30" viewBox="0 0 25 30" fill="none" xmlns="http://www.w3.org/2000/svg">
<g clip-path="url(#clip0_20_15762)">
<path d="M24.6504 20.1333C24.6567 20.2149 24.639 20.2947 24.6025 20.3642C24.5637 20.4377 24.5033 20.4999 24.4269 20.5415C24.3648 20.5751 18.0999 23.9863 12.8366 29.1225C12.7533 29.2035 12.6456 29.244 12.5378 29.244C12.4301 29.244 12.3224 29.2035 12.2391 29.1225C6.97579 23.9863 0.710898 20.5751 0.648762 20.5415C0.572375 20.4999 0.511949 20.4377 0.473185 20.3642C0.436702 20.2947 0.41903 20.2149 0.425301 20.1333C1.00619 12.3624 0.437842 9.24701 0.431571 9.21621C0.413329 9.11873 0.429291 9.02068 0.473755 8.93689C0.512519 8.86276 0.573515 8.80006 0.651042 8.75846C0.712038 8.72598 6.84299 5.4356 12.2397 0.178551C12.3224 0.0976028 12.4301 0.0571289 12.5378 0.0571289C12.6456 0.0571289 12.7533 0.0976028 12.836 0.178551C18.2327 5.4356 24.3636 8.72598 24.4246 8.75846C24.5027 8.80006 24.5632 8.86276 24.6019 8.93689C24.6464 9.02068 24.6623 9.11873 24.6441 9.21621C24.6378 9.24701 24.0695 12.3624 24.6504 20.1333Z" fill="#C246C0"/>
<path d="M24.6506 20.1333C24.6569 20.2149 24.6392 20.2947 24.6027 20.3642C24.564 20.4378 24.5035 20.4999 24.4271 20.5415C24.365 20.5751 18.1001 23.9863 12.8368 29.1225C12.7536 29.2035 12.6458 29.244 12.538 29.244C17.3853 24.0034 23.0841 18.8473 23.0841 18.8473C22.5483 10.8996 23.0841 10.4538 23.0841 10.4538C23.0841 10.4538 17.5078 5.42194 12.538 0.0571289C12.6458 0.0571289 12.7536 0.0976028 12.8362 0.178551C18.2329 5.43559 24.3639 8.72596 24.4249 8.75844C24.5029 8.80005 24.5634 8.86279 24.6021 8.93687C24.6466 9.02066 24.6626 9.11872 24.6443 9.2162C24.638 9.24699 24.0697 12.3623 24.6506 20.1333Z" fill="#E57CE4"/>
<path d="M24.6502 20.1335C24.6565 20.215 24.6388 20.2948 24.6024 20.3644C24.3145 20.1039 23.7826 19.5999 23.0837 18.8474V18.8469C22.1774 17.8709 20.9911 16.4766 19.6959 14.6507C20.9888 12.8288 22.1722 11.4362 23.078 10.4608C23.0815 10.4557 23.0837 10.454 23.0837 10.454C23.782 9.70205 24.3133 9.1987 24.6018 8.93701C24.6462 9.02084 24.6622 9.1189 24.644 9.21638C24.6377 9.24713 24.0694 12.3625 24.6502 20.1335Z" fill="#E57CE4"/>
<path d="M5.37965 14.6507C3.08518 17.8846 1.13388 19.7653 0.473185 20.3644C0.436702 20.2948 0.41903 20.215 0.425301 20.1335C1.00619 12.3625 0.437842 9.24713 0.431571 9.21638C0.413329 9.1189 0.429291 9.02084 0.473755 8.93701C1.13559 9.53788 3.08575 11.4179 5.37965 14.6507Z" fill="#E57CE4"/>
<path d="M24.6505 20.1335C24.6568 20.215 24.6391 20.2948 24.6027 20.3644C24.3148 20.1038 23.7829 19.5999 23.084 18.8474V18.8469C22.5818 11.3962 23.0213 10.5389 23.0783 10.4608C23.0818 10.4557 23.084 10.4539 23.084 10.4539C23.7823 9.70205 24.3136 9.19866 24.6021 8.93701C24.6465 9.0208 24.6625 9.11886 24.6443 9.21634C24.638 9.24713 24.0696 12.3625 24.6505 20.1335Z" fill="#E366E2"/>
<path d="M12.5376 0.0571289C10.6838 6.1009 7.81209 11.1187 5.3794 14.6506C7.81209 18.1824 10.6838 23.2002 12.5376 29.2439C14.3914 23.2002 17.2632 18.1824 19.6958 14.6506C17.2632 11.1187 14.3914 6.1009 12.5376 0.0571289Z" fill="#D65AD4"/>
<path d="M8.40974 15.0115C8.33087 15.0115 8.25111 14.9898 8.17973 14.9441C7.98083 14.8168 7.92274 14.5524 8.05 14.3536C9.40137 12.2412 10.415 10.1634 10.4251 10.1427C10.5284 9.93028 10.7839 9.84171 10.9965 9.94499C11.2089 10.0482 11.2973 10.304 11.1942 10.5164C11.1839 10.5375 10.1496 12.6582 8.77028 14.8144C8.68875 14.9419 8.55073 15.0115 8.40974 15.0115Z" fill="#E57CE4"/>
<path d="M10.7013 14.7907C10.6224 14.7907 10.5427 14.7689 10.4714 14.7232C10.2724 14.596 10.2143 14.3316 10.3416 14.1327C10.9281 13.2159 11.3687 12.3131 11.3731 12.304C11.4764 12.0917 11.7321 12.003 11.9445 12.1064C12.1569 12.2096 12.2453 12.4654 12.1422 12.6777C12.1235 12.7162 11.6763 13.6329 11.062 14.5934C10.9803 14.721 10.8423 14.7907 10.7013 14.7907Z" fill="#E57CE4"/>
</g>
<defs>
<clipPath id="clip0_20_15762">
<rect width="24.3699" height="29.2438" fill="white" transform="translate(0.424072)"/>
</clipPath>
</defs>
</svg>
