<svg width="24" height="30" viewBox="0 0 24 30" fill="none" xmlns="http://www.w3.org/2000/svg">
<g clip-path="url(#clip0_20_15744)">
<path d="M4.25607 14.5763L11.3206 5.18042L18.385 14.5763L11.3206 23.9722L4.25607 14.5763Z" fill="#FFF159"/>
<path d="M18.3857 14.5763L11.3213 5.18042V23.9722L18.3857 14.5763Z" fill="#FFDF40"/>
<path d="M11.3213 0L13.0315 4.42545L11.3213 8.02642L6.39603 14.5764L3.69328 16.2866L0 14.5764L11.3213 0Z" fill="#FFBE40"/>
<path d="M22.6427 14.5764L11.3215 29.1868L9.61126 24.3506L11.3215 21.1263L16.2467 14.5764L19.1992 12.8662L22.6427 14.5764Z" fill="#FFBE40"/>
<path d="M11.3213 21.1263V29.1869L0 14.5764H6.39603L11.3213 21.1263Z" fill="#FF9F40"/>
<path d="M22.6426 14.5764H16.2465L11.3213 8.02644V0L22.6426 14.5764Z" fill="#FF9F40"/>
</g>
<defs>
<clipPath id="clip0_20_15744">
<rect width="23.0406" height="29.2438" fill="white"/>
</clipPath>
</defs>
</svg>
