<svg width="58" height="66" viewBox="0 0 58 66" fill="none" xmlns="http://www.w3.org/2000/svg">
<g clip-path="url(#clip0_20_15774)">
<path d="M33.9897 0.0422169L10.0969 4.47232C9.11953 4.6536 8.34091 5.39323 8.1101 6.35956L0.705493 37.3718C0.475587 38.3346 0.832733 39.3425 1.61766 39.9461L34.6469 65.3493C35.9099 66.3206 37.7469 65.8874 38.4423 64.4544L56.9787 26.2487C57.4236 25.3317 57.2701 24.2368 56.5901 23.4772L36.3218 0.837305C35.7367 0.183609 34.8526 -0.11783 33.9897 0.0422169Z" fill="#C4C4C4"/>
<path d="M56.5911 23.4774L36.323 0.837305C35.7377 0.183609 34.8537 -0.11783 33.9907 0.0422169L31.8828 0.433071C32.0514 0.547188 32.2078 0.681889 32.3469 0.837305L52.6149 23.4774C53.2949 24.2369 53.4483 25.3317 53.0035 26.2488L34.4671 64.4545C34.3769 64.6404 34.267 64.8092 34.1422 64.9605L34.6479 65.3494C35.9109 66.3209 37.7479 65.8877 38.4433 64.4545L56.9797 26.2488C57.4246 25.3317 57.2711 24.2368 56.5911 23.4774Z" fill="#9A99A0"/>
<path d="M32.2355 21.3714L0.757885 38.7176C0.620996 38.2907 0.599126 37.8271 0.707196 37.3742L8.1118 6.35921C8.23506 5.84343 8.51424 5.39198 8.89763 5.05542L32.2355 21.3714Z" fill="#8D8C96"/>
<path d="M57.1807 24.663L32.2344 21.3713L35.324 0.158936C35.7005 0.297111 36.0441 0.526889 36.3206 0.836175L56.5988 23.4879C56.9014 23.8285 57.0972 24.2348 57.1807 24.663Z" fill="#9A99A0"/>
<path d="M52.6227 23.4879C52.7923 23.6788 52.927 23.8907 53.0285 24.1152L57.1807 24.6631C57.0972 24.235 56.9014 23.8287 56.5989 23.488L36.3206 0.836175C36.0441 0.527017 35.7005 0.297111 35.324 0.158936L34.8223 3.60393L52.6227 23.4879Z" fill="#8D8C96"/>
<path d="M36.9371 65.7526C36.1937 65.988 35.345 65.8785 34.662 65.3614L1.61553 39.9447C1.20075 39.6259 0.906386 39.195 0.755859 38.7175L32.2335 21.3713L36.9371 65.7526Z" fill="#9A99A0"/>
<path d="M33.4369 11.7029L22.6514 13.7028C22.2102 13.7846 21.8586 14.1184 21.7545 14.5547L18.4119 28.554C18.3081 28.9886 18.4693 29.4436 18.8236 29.7161L33.7334 41.1835C34.3036 41.6219 35.1328 41.4264 35.4467 40.7795L43.8143 23.5329C44.0152 23.1189 43.946 22.6247 43.639 22.2819L34.4897 12.0619C34.2256 11.7668 33.8265 11.6306 33.4369 11.7029Z" fill="#CCCCCC"/>
</g>
<defs>
<clipPath id="clip0_20_15774">
<rect width="58" height="66" fill="white"/>
</clipPath>
</defs>
</svg>
