<svg width="21" height="24" viewBox="0 0 21 24" fill="none" xmlns="http://www.w3.org/2000/svg">
<g clip-path="url(#clip0_20_15244)">
<path d="M12.3049 0.580302L4.02613 2.11531C3.68748 2.17812 3.41769 2.4344 3.33772 2.76923L0.77206 13.5148C0.692399 13.8484 0.816148 14.1976 1.08812 14.4068L12.5326 23.2089C12.9702 23.5454 13.6067 23.3953 13.8477 22.8988L20.2704 9.66071C20.4246 9.34297 20.3714 8.9636 20.1358 8.7004L13.1129 0.855796C12.9102 0.629293 12.6039 0.524846 12.3049 0.580302Z" fill="#C4C4C4"/>
<path d="M20.1362 8.70047L13.1134 0.855796C12.9106 0.629293 12.6043 0.524846 12.3053 0.580302L11.5749 0.715731C11.6333 0.755272 11.6875 0.801945 11.7357 0.855796L18.7585 8.70047C18.9941 8.96363 19.0472 9.34297 18.8931 9.66074L12.4703 22.8988C12.4391 22.9632 12.401 23.0217 12.3578 23.0741L12.533 23.2089C12.9706 23.5455 13.6071 23.3954 13.8481 22.8988L20.2708 9.66074C20.425 9.34297 20.3718 8.9636 20.1362 8.70047Z" fill="#9A99A0"/>
<path d="M11.6971 7.97078L0.790269 13.9811C0.742838 13.8332 0.73526 13.6726 0.772706 13.5157L3.33836 2.76914C3.38107 2.59042 3.47781 2.434 3.61065 2.31738L11.6971 7.97078Z" fill="#8D8C96"/>
<path d="M20.3404 9.11112L11.6967 7.97056L12.7672 0.620605C12.8976 0.668482 13.0167 0.748099 13.1125 0.855265L20.1388 8.70395C20.2436 8.82197 20.3115 8.96275 20.3404 9.11112Z" fill="#9A99A0"/>
<path d="M18.7611 8.70395C18.8199 8.7701 18.8666 8.84352 18.9017 8.92131L20.3405 9.11116C20.3115 8.96282 20.2437 8.82204 20.1389 8.70399L13.1125 0.855265C13.0167 0.748144 12.8977 0.668482 12.7672 0.620605L12.5934 1.81428L18.7611 8.70395Z" fill="#8D8C96"/>
<path d="M13.3262 23.3486C13.0686 23.4302 12.7745 23.3922 12.5378 23.213L1.08742 14.4063C0.943703 14.2958 0.841708 14.1465 0.789551 13.9811L11.6964 7.9707L13.3262 23.3486Z" fill="#9A99A0"/>
<path d="M12.1134 4.62087L8.37627 5.31382C8.2234 5.34216 8.10157 5.45782 8.0655 5.609L6.90731 10.4597C6.87134 10.6103 6.9272 10.7679 7.04996 10.8623L12.2161 14.8357C12.4137 14.9876 12.701 14.9199 12.8098 14.6958L15.7091 8.7199C15.7787 8.57645 15.7547 8.40521 15.6484 8.28643L12.4782 4.74526C12.3867 4.64301 12.2484 4.59581 12.1134 4.62087Z" fill="#CCCCCC"/>
</g>
<defs>
<clipPath id="clip0_20_15244">
<rect width="20.0967" height="22.8687" fill="white" transform="translate(0.527649 0.565674)"/>
</clipPath>
</defs>
</svg>
