<svg width="30" height="22" viewBox="0 0 30 22" fill="none" xmlns="http://www.w3.org/2000/svg">
<g clip-path="url(#clip0_20_15751)">
<path d="M24.2645 0.407715L29.2968 6.44642H21.4661L24.2645 0.407715Z" fill="#ECF8FD"/>
<path d="M14.7038 0.407715L21.4666 6.44642L24.265 0.407715H14.7038Z" fill="#CBEDF9"/>
<path d="M29.2972 6.44653L14.7038 21.04L21.4666 6.44653H29.2972Z" fill="#AAE2F5"/>
<path d="M5.14263 0.407715L0.110428 6.44642H7.94104L5.14263 0.407715Z" fill="#7DD2F0"/>
<path d="M14.7039 0.407715L7.94116 6.44642L5.14275 0.407715H14.7039Z" fill="#64B9DC"/>
<path d="M14.7043 0.407715L7.94147 6.44642H21.4671L14.7043 0.407715Z" fill="#AAE2F5"/>
<path d="M7.94147 6.44653L14.7043 21.04L21.4671 6.44653H7.94147Z" fill="#7DD2F0"/>
<path d="M0.110428 6.44653L14.7039 21.04L7.94104 6.44653H0.110428Z" fill="#64B9DC"/>
<path d="M24.9053 3.45727C23.9191 3.23238 23.1427 2.45603 22.9179 1.46977C22.901 1.39549 22.8026 1.39549 22.7857 1.46977C22.5609 2.45603 21.7845 3.23238 20.7983 3.45727C20.724 3.4742 20.724 3.57253 20.7983 3.58946C21.7846 3.8143 22.5609 4.59059 22.7857 5.57686C22.8026 5.65112 22.901 5.65112 22.9179 5.57686C23.1427 4.59059 23.9191 3.81424 24.9053 3.58946C24.9795 3.57248 24.9795 3.4742 24.9053 3.45727Z" fill="white"/>
<path d="M22.6008 7.08288C21.8267 6.88234 21.2171 6.27292 21.0167 5.49875C20.9966 5.42099 20.8959 5.42099 20.8758 5.49875C20.6752 6.27292 20.0658 6.88247 19.2917 7.08288C19.2139 7.103 19.2139 7.20367 19.2917 7.22378C20.0658 7.42428 20.6754 8.03379 20.8758 8.80791C20.8959 8.88568 20.9966 8.88568 21.0167 8.80791C21.2172 8.03375 21.8267 7.42424 22.6008 7.22378C22.6787 7.20362 22.6787 7.103 22.6008 7.08288Z" fill="white"/>
</g>
<defs>
<clipPath id="clip0_20_15751">
<rect width="29.2438" height="21.2682" fill="white" transform="translate(0.110443 0.0632324)"/>
</clipPath>
</defs>
</svg>
