<svg width="160" height="160" viewBox="0 0 160 160" fill="none" xmlns="http://www.w3.org/2000/svg">
<ellipse opacity="0.1" cx="80" cy="155.2" rx="80" ry="4.8" fill="#424B5A"/>
<path fill-rule="evenodd" clip-rule="evenodd" d="M14.3999 38.4C14.3999 27.7961 22.996 19.2 33.5999 19.2C44.2038 19.2 52.7999 27.7961 52.7999 38.4C52.7999 49.0039 44.2038 57.6 33.5999 57.6C22.996 57.6 14.3999 49.0039 14.3999 38.4ZM33.5999 16C21.2287 16 11.1999 26.0288 11.1999 38.4C11.1999 49.6847 19.5445 59.0204 30.3999 60.5732V108.8C30.3999 115.869 36.1306 121.6 43.1999 121.6H116.8C123.869 121.6 129.6 115.869 129.6 108.8V94.4H131.2C134.735 94.4 137.6 91.5346 137.6 88V80C137.6 76.4654 134.735 73.6 131.2 73.6H129.6V59.2C129.6 52.1308 123.869 46.4 116.8 46.4H113.6V43.2C113.6 37.0144 108.585 32 102.4 32H55.0723C52.3185 22.7472 43.7472 16 33.5999 16ZM55.773 35.2C55.9225 36.2451 55.9999 37.3135 55.9999 38.4C55.9999 41.2186 55.4793 43.9155 54.5291 46.4H110.4V43.2C110.4 38.7817 106.818 35.2 102.4 35.2H55.773ZM53.0032 49.6C49.1301 56.2954 41.891 60.8 33.5999 60.8V108.8C33.5999 114.102 37.898 118.4 43.1999 118.4H116.8C122.102 118.4 126.4 114.102 126.4 108.8V94.4H104C100.465 94.4 97.5999 91.5346 97.5999 88V80C97.5999 76.4654 100.465 73.6 104 73.6H126.4V59.2C126.4 53.8981 122.102 49.6 116.8 49.6H53.0032ZM59.6192 73.6C58.2229 73.6 57.0302 73.8666 56.0072 74.3629L55.9997 74.3665C54.974 74.8576 54.1975 75.5273 53.628 76.3752C53.0907 77.1857 52.7999 78.1533 52.7999 79.3386C52.7999 80.7659 53.2219 81.7586 53.9554 82.4858C54.8138 83.3206 56.0449 84.0065 57.7426 84.4799L60.3475 85.2078L60.35 85.2085C61.2339 85.4528 62.0372 85.7402 62.7484 86.0781C63.535 86.4397 64.2308 86.9319 64.7603 87.5917C65.3709 88.3437 65.6307 89.247 65.6415 90.1822L65.6415 90.2174C65.6309 91.2345 65.3418 92.187 64.743 93.0118L64.7361 93.0212C64.1582 93.8051 63.3823 94.382 62.476 94.7775L62.4672 94.7813C61.5496 95.1753 60.5357 95.3485 59.4625 95.3485C58.7634 95.3485 57.862 95.1095 57.2083 94.9126C57.1582 94.8975 57.1083 94.8823 57.0586 94.8669L56.814 95.6963C57.5999 95.8942 58.4903 96 59.4961 96C61.158 96 62.4725 95.721 63.4964 95.2334C64.5504 94.7269 65.2977 94.0591 65.806 93.2446C66.3175 92.4171 66.5953 91.4325 66.5953 90.2371C66.5953 89.3432 66.4406 88.6429 66.1849 88.0934C65.9016 87.4846 65.5249 86.9805 65.0536 86.5641L65.0467 86.558C64.5354 86.101 63.9494 85.717 63.2807 85.4079L63.2756 85.4055C62.5696 85.0762 61.8328 84.8142 61.0635 84.6199L61.0364 84.6128L58.8959 84.0321C58.3684 83.8954 57.8468 83.7275 57.3313 83.529C56.7625 83.31 56.2303 83.0358 55.7406 82.7023L55.7216 82.6892C55.1641 82.2977 54.701 81.8071 54.3551 81.219L54.3433 81.1986C53.9666 80.536 53.8096 79.8037 53.8096 79.0591V79.04C53.8205 78.1244 54.0728 77.2606 54.5877 76.4987C55.1056 75.7323 55.8267 75.1711 56.6695 74.7854C57.5464 74.3841 58.5278 74.2151 59.5632 74.2151C60.2912 74.2151 60.9912 74.3013 61.6472 74.4898L61.8675 73.8651C61.1986 73.6919 60.4522 73.6 59.6192 73.6ZM54.6141 71.4821C55.551 71.028 56.5513 70.7215 57.6072 70.5539C57.6024 70.5032 57.5999 70.4519 57.5999 70.4V68.8C57.5999 67.9163 58.3162 67.2 59.1999 67.2C60.0835 67.2 60.7999 67.9163 60.7999 68.8V70.4C60.7999 70.4169 60.7996 70.4337 60.7991 70.4504C62.1757 70.5711 63.4548 70.9105 64.6149 71.494C65.3344 71.8558 65.6728 72.696 65.405 73.4554L64.0727 77.2341C63.9022 77.7178 63.5101 78.0904 63.0183 78.2361C62.5266 78.3818 61.9948 78.283 61.5883 77.9703C61.167 77.6463 60.5384 77.4151 59.5632 77.4151C58.8671 77.4151 58.3631 77.5296 58.001 77.6952C57.6048 77.8766 57.378 78.0849 57.2391 78.2904C57.0984 78.4985 57.015 78.7418 57.0096 79.0688C57.0108 79.3465 57.0661 79.5093 57.1201 79.608C57.22 79.7743 57.3572 79.9259 57.5518 80.0642C57.821 80.2463 58.1289 80.4071 58.4812 80.5428C58.8881 80.6994 59.2963 80.8304 59.706 80.9363L59.7247 80.9411L61.8611 81.5209C62.8176 81.7634 63.7397 82.0912 64.626 82.5044C65.5671 82.9397 66.4196 83.4939 67.1756 84.1689C67.9864 84.886 68.6237 85.7497 69.0861 86.7432C69.5768 87.7975 69.7953 88.9764 69.7953 90.2371C69.7953 91.9567 69.3869 93.5391 68.5259 94.9306L68.5231 94.9351C67.6584 96.3222 66.4212 97.3787 64.8798 98.1189L64.8757 98.1209C63.6619 98.6995 62.2941 99.0315 60.7991 99.1499C60.7996 99.1666 60.7999 99.1833 60.7999 99.2V100.8C60.7999 101.684 60.0835 102.4 59.1999 102.4C58.3162 102.4 57.5999 101.684 57.5999 100.8V99.2C57.5999 99.1627 57.6012 99.1258 57.6037 99.0891C56.375 98.939 55.2313 98.6337 54.1856 98.1565C53.4609 97.8259 53.0898 97.0125 53.3151 96.2484L54.4652 92.3475C54.5929 91.9146 54.8974 91.5557 55.3039 91.3593C55.7103 91.163 56.1808 91.1474 56.5993 91.3165C56.9063 91.4406 57.5095 91.6614 58.131 91.8485C58.8167 92.055 59.2958 92.1485 59.4625 92.1485C60.1931 92.1485 60.7603 92.0308 61.2005 91.8427C61.6623 91.6404 61.9591 91.3935 62.1568 91.1271C62.3297 90.8872 62.4344 90.5984 62.4415 90.2017C62.4347 89.8554 62.3468 89.6956 62.2752 89.6078L62.2658 89.5963C62.1117 89.4036 61.8507 89.1864 61.4053 88.9826L61.383 88.9721C60.8735 88.7294 60.2482 88.5002 59.4955 88.2923L59.4909 88.291L56.8832 87.5623C54.8068 86.9834 53.0536 86.0751 51.7178 84.7734L51.7096 84.7654C50.2661 83.3383 49.5999 81.4727 49.5999 79.3386C49.5999 77.5932 50.0398 75.994 50.9642 74.602L50.9683 74.5957C51.8757 73.2431 53.1051 72.2053 54.6141 71.4821ZM132.373 121.016C132.373 123.344 134.261 125.231 136.589 125.231H145.26C147.588 125.231 149.476 123.344 149.476 121.016C149.476 118.688 147.588 116.801 145.26 116.801H136.589C134.261 116.801 132.373 118.688 132.373 121.016ZM136.589 122.031C136.028 122.031 135.573 121.577 135.573 121.016C135.573 120.455 136.028 120.001 136.589 120.001H145.26C145.821 120.001 146.276 120.455 146.276 121.016C146.276 121.577 145.821 122.031 145.26 122.031H136.589ZM123.2 138.392C123.2 140.721 125.087 142.608 127.415 142.608C129.743 142.608 131.631 140.721 131.631 138.392V129.721C131.631 127.393 129.743 125.505 127.415 125.505C125.087 125.505 123.2 127.393 123.2 129.721V138.392ZM127.415 139.408C126.854 139.408 126.4 138.953 126.4 138.392V129.721C126.4 129.16 126.854 128.705 127.415 128.705C127.976 128.705 128.431 129.16 128.431 129.721V138.392C128.431 138.953 127.976 139.408 127.415 139.408ZM29.5999 28C29.5999 25.7909 31.3907 24 33.5999 24C35.809 24 37.5999 25.7909 37.5999 28V37.6C37.5999 39.8091 35.809 41.6 33.5999 41.6C31.3907 41.6 29.5999 39.8091 29.5999 37.6V28ZM33.5999 27.2C33.1581 27.2 32.7999 27.5582 32.7999 28V37.6C32.7999 38.0418 33.1581 38.4 33.5999 38.4C34.0417 38.4 34.3999 38.0418 34.3999 37.6V28C34.3999 27.5582 34.0417 27.2 33.5999 27.2ZM33.5999 52.8C31.3907 52.8 29.5999 51.0091 29.5999 48.8C29.5999 46.5909 31.3907 44.8 33.5999 44.8C35.809 44.8 37.5999 46.5909 37.5999 48.8C37.5999 51.0091 35.809 52.8 33.5999 52.8ZM32.7999 48.8C32.7999 49.2418 33.1581 49.6 33.5999 49.6C34.0417 49.6 34.3999 49.2418 34.3999 48.8C34.3999 48.3582 34.0417 48 33.5999 48C33.1581 48 32.7999 48.3582 32.7999 48.8Z" fill="#424B5A"/>
</svg>
