<svg width="15" height="15" viewBox="0 0 15 15" fill="none" xmlns="http://www.w3.org/2000/svg">
<path d="M8.58125 2.19374L9.68125 4.39374C9.83125 4.69999 10.2312 4.99374 10.5687 5.04999L12.5625 5.38124C13.8375 5.59374 14.1375 6.51874 13.2187 7.43124L11.6687 8.98124C11.4062 9.24374 11.2625 9.74999 11.3437 10.1125L11.7875 12.0312C12.1375 13.55 11.3312 14.1375 9.9875 13.3437L8.11875 12.2375C7.78125 12.0375 7.225 12.0375 6.88125 12.2375L5.0125 13.3437C3.675 14.1375 2.8625 13.5437 3.2125 12.0312L3.65625 10.1125C3.7375 9.74999 3.59375 9.24374 3.33125 8.98124L1.78125 7.43124C0.868747 6.51874 1.1625 5.59374 2.4375 5.38124L4.43125 5.04999C4.7625 4.99374 5.1625 4.69999 5.3125 4.39374L6.4125 2.19374C7.0125 0.999994 7.9875 0.999994 8.58125 2.19374Z" stroke="white" stroke-width="1.5" stroke-linecap="round" stroke-linejoin="round"/>
</svg>
